<svg version="1.1" xmlns="http://www.w3.org/2000/svg" viewBox="0 0 1839.7550763592124 2979.999934172827" width="1839.7550763592124" height="2979.999934172827">
  <!-- svg-source:excalidraw -->
  
  <defs>
    <style class="style-fonts">
      @font-face {
        font-family: "Virgil";
        src: url("https://excalidraw.com/Virgil.woff2");
      }
      @font-face {
        font-family: "Cascadia";
        src: url("https://excalidraw.com/Cascadia.woff2");
      }
      @font-face {
        font-family: "Assistant";
        src: url("https://excalidraw.com/Assistant-Regular.woff2");
      }
    </style>
    
  </defs>
  <rect x="0" y="0" width="1839.7550763592124" height="2979.999934172827" fill="#ffffff"></rect><g stroke-linecap="round"><g transform="translate(10.664195011556103 335.4545440673828) rotate(0 813.2537683740259 4.399323616190827)"><path d="M-0.66 0.24 C270.45 1.87, 1355.81 8.03, 1627.17 9.47 M1.19 -0.68 C272.17 0.6, 1355.62 5.75, 1626.65 7.55" stroke="#1e1e1e" stroke-width="2" fill="none"></path></g></g><mask></mask><g stroke-linecap="round"><g transform="translate(167.93693060725923 305.4545440673828) rotate(0 0.257980399389794 34.769811301780834)"><path d="M0.32 -0.13 C0.01 11.21, -0.82 57.47, -0.81 69.19 M-0.97 -1.24 C-0.99 10.82, 1.35 59.16, 1.48 70.78" stroke="#1e1e1e" stroke-width="2" fill="none"></path></g></g><mask></mask><g transform="translate(157.93693060725923 394.54542541503906) rotate(0 7.116666793823242 12.5)"><text x="0" y="17.52" font-family="Virgil, Segoe UI Emoji" font-size="20px" fill="#1e1e1e" text-anchor="start" style="white-space: pre;" direction="ltr" dominant-baseline="alphabetic">2</text></g><g stroke-linecap="round"><g transform="translate(704.3005475506186 289.99998474121094) rotate(0 0.7425465092063064 59.741444665743046)"><path d="M-0.5 0.41 C-0.37 20.12, 1.63 99, 1.99 118.93 M1.44 -0.43 C1.33 19.34, 1.23 99.62, 1.13 119.91" stroke="#1e1e1e" stroke-width="2" fill="none"></path></g></g><mask></mask><g transform="translate(691.5732526287436 419.0908966064453) rotate(0 5.383333206176758 12.5)"><text x="0" y="17.52" font-family="Virgil, Segoe UI Emoji" font-size="20px" fill="#1e1e1e" text-anchor="start" style="white-space: pre;" direction="ltr" dominant-baseline="alphabetic">7</text></g><g stroke-linecap="round"><g transform="translate(992.4823712810874 283.63636779785156) rotate(0 -1.4274131789803732 61.916391480616284)"><path d="M0.13 -0.15 C-0.55 20.67, -2.64 104.37, -2.98 125.1 M-1.26 -1.27 C-1.69 19.17, -0.63 102.15, -0.88 123.27" stroke="#1e1e1e" stroke-width="2" fill="none"></path></g></g><mask></mask><g transform="translate(975.2096662029624 424.54542541503906) rotate(0 6.0916666984558105 12.5)"><text x="0" y="17.52" font-family="Virgil, Segoe UI Emoji" font-size="20px" fill="#1e1e1e" text-anchor="start" style="white-space: pre;" direction="ltr" dominant-baseline="alphabetic">9</text></g><g stroke-linecap="round"><g transform="translate(1223.3914288982749 262.72727966308594) rotate(0 -2.4063475368451464 88.78577172691934)"><path d="M-0.85 -0.09 C-1.59 29.62, -4.11 148, -4.7 177.55 M0.91 -1.19 C0.02 28.73, -4.73 148.89, -5.72 178.76" stroke="#1e1e1e" stroke-width="2" fill="none"></path></g></g><mask></mask><g transform="translate(1200.6641339763999 452.7272491455078) rotate(0 9.824999809265137 12.5)"><text x="0" y="17.52" font-family="Virgil, Segoe UI Emoji" font-size="20px" fill="#1e1e1e" text-anchor="start" style="white-space: pre;" direction="ltr" dominant-baseline="alphabetic">12</text></g><g stroke-linecap="round"><g transform="translate(1391.5731915935874 217.27272033691406) rotate(0 -1.835118093914275 136.13991041953673)"><path d="M0.26 0.47 C-0.42 45.81, -2.55 226.26, -3.52 271.33 M-1.06 -0.34 C-1.86 45.24, -3.58 227.26, -3.93 272.61" stroke="#1e1e1e" stroke-width="2" fill="none"></path></g></g><mask></mask><g transform="translate(1375.2096662029624 500.90907287597656) rotate(0 8.891666412353516 12.5)"><text x="0" y="17.52" font-family="Virgil, Segoe UI Emoji" font-size="20px" fill="#1e1e1e" text-anchor="start" style="white-space: pre;" direction="ltr" dominant-baseline="alphabetic">15</text></g><g stroke-linecap="round"><g transform="translate(1456.1187238201499 187.27272033691406) rotate(0 -3.4282870416110427 178.83773420006037)"><path d="M0.06 -0.62 C-1.11 58.94, -4.89 298.72, -6.11 358.3 M-1.36 1.66 C-2.75 60.83, -6.35 297.33, -6.92 356.72" stroke="#1e1e1e" stroke-width="2" fill="none"></path></g></g><mask></mask><g transform="translate(1438.8458966717124 565.4546051025391) rotate(0 8.091666221618652 12.5)"><text x="0" y="17.52" font-family="Virgil, Segoe UI Emoji" font-size="20px" fill="#1e1e1e" text-anchor="start" style="white-space: pre;" direction="ltr" dominant-baseline="alphabetic">17</text></g><g transform="translate(647.9368390545249 452.72731018066406) rotate(0 60.13333511352539 25)"><text x="0" y="17.52" font-family="Virgil, Segoe UI Emoji" font-size="20px" fill="#1e1e1e" text-anchor="start" style="white-space: pre;" direction="ltr" dominant-baseline="alphabetic">tree shaking</text><text x="0" y="42.519999999999996" font-family="Virgil, Segoe UI Emoji" font-size="20px" fill="#1e1e1e" text-anchor="start" style="white-space: pre;" direction="ltr" dominant-baseline="alphabetic">des services</text></g><g transform="translate(974.3006085857749 454.54542541503906) rotate(0 21.774999618530273 12.5)"><text x="0" y="17.52" font-family="Virgil, Segoe UI Emoji" font-size="20px" fill="#1e1e1e" text-anchor="start" style="white-space: pre;" direction="ltr" dominant-baseline="alphabetic">ivy ?</text></g><g transform="translate(1197.9368390545249 505.4545440673828) rotate(0 23.33333396911621 12.5)"><text x="0" y="17.52" font-family="Virgil, Segoe UI Emoji" font-size="20px" fill="#1e1e1e" text-anchor="start" style="white-space: pre;" direction="ltr" dominant-baseline="alphabetic">Ivy !</text></g><g transform="translate(1317.9369611248374 525.4545440673828) rotate(0 53.08333206176758 25)"><text x="0" y="17.52" font-family="Virgil, Segoe UI Emoji" font-size="20px" fill="#1e1e1e" text-anchor="start" style="white-space: pre;" direction="ltr" dominant-baseline="alphabetic">standalone</text><text x="0" y="42.519999999999996" font-family="Virgil, Segoe UI Emoji" font-size="20px" fill="#1e1e1e" text-anchor="start" style="white-space: pre;" direction="ltr" dominant-baseline="alphabetic">api</text></g><g transform="translate(1430.6641339763999 599.9999542236328) rotate(0 26.600000381469727 12.5)"><text x="0" y="17.52" font-family="Virgil, Segoe UI Emoji" font-size="20px" fill="#1e1e1e" text-anchor="start" style="white-space: pre;" direction="ltr" dominant-baseline="alphabetic">signal</text></g><g stroke-linecap="round"><g transform="translate(1543.3914288982749 105.45457458496094) rotate(0 -2.770792852444515 238.03412157242653)"><path d="M-0.81 0.9 C-1.65 80.08, -4.95 396.72, -5.53 475.74 M0.97 0.32 C0.01 79.07, -5.61 394.47, -6.51 473.77" stroke="#1e1e1e" stroke-width="2" fill="none"></path></g></g><mask></mask><g transform="translate(1532.4823712810874 599.9999542236328) rotate(0 42.79999923706055 25)"><text x="0" y="17.52" font-family="Virgil, Segoe UI Emoji" font-size="20px" fill="#1e1e1e" text-anchor="start" style="white-space: pre;" direction="ltr" dominant-baseline="alphabetic">18</text><text x="0" y="42.519999999999996" font-family="Virgil, Segoe UI Emoji" font-size="20px" fill="#1e1e1e" text-anchor="start" style="white-space: pre;" direction="ltr" dominant-baseline="alphabetic">template</text></g><g stroke-linecap="round" transform="translate(1346.1187238201499 77.27273559570312) rotate(0 241.81817626953125 287.72725677490234)"><path d="M32 0 C129.15 -2.02, 225.82 -2.26, 451.64 0 M32 0 C196.2 1.94, 361.57 1.28, 451.64 0 M451.64 0 C471.16 -1.51, 483.19 10.36, 483.64 32 M451.64 0 C473.45 1.6, 483.31 11.49, 483.64 32 M483.64 32 C486.17 157.81, 486.23 282.92, 483.64 543.45 M483.64 32 C483.11 168.65, 482.77 304.97, 483.64 543.45 M483.64 543.45 C482.07 563.21, 471.18 576.76, 451.64 575.45 M483.64 543.45 C482.7 566.14, 472.36 577.6, 451.64 575.45 M451.64 575.45 C283.57 577.62, 116.73 577.47, 32 575.45 M451.64 575.45 C304.62 575.97, 157.7 575.29, 32 575.45 M32 575.45 C12.41 573.69, 0.74 566.02, 0 543.45 M32 575.45 C12.23 574.99, 1.89 563.78, 0 543.45 M0 543.45 C-0.6 423.54, 0.11 304.59, 0 32 M0 543.45 C-0.31 360.93, -0.11 178.53, 0 32 M0 32 C-1.3 11.95, 11.63 -1.56, 32 0 M0 32 C0.28 9.53, 9.83 2.28, 32 0" stroke="#f08c00" stroke-width="2" fill="none"></path></g><g stroke-linecap="round" transform="translate(727.0277814373374 10) rotate(0 306.81817626953125 303.18180084228516)"><path d="M32 0 C212.39 0.45, 390.65 -0.53, 581.64 0 M32 0 C217.04 1.79, 401.74 1.36, 581.64 0 M581.64 0 C601.82 0.48, 614.68 11.25, 613.64 32 M581.64 0 C604.2 -0.27, 612.48 10.74, 613.64 32 M613.64 32 C612.34 232.92, 612.66 434.96, 613.64 574.36 M613.64 32 C612.58 161.41, 612.73 291.03, 613.64 574.36 M613.64 574.36 C612.13 595.21, 601.68 608.35, 581.64 606.36 M613.64 574.36 C612.3 597.62, 600.8 605.54, 581.64 606.36 M581.64 606.36 C401.28 608.16, 220 608.69, 32 606.36 M581.64 606.36 C456.57 607.8, 331.8 607.52, 32 606.36 M32 606.36 C12.24 605.85, 0.74 596.35, 0 574.36 M32 606.36 C11.39 605.25, 0.45 597.19, 0 574.36 M0 574.36 C-1.44 459.62, -0.66 344.99, 0 32 M0 574.36 C0.85 439.09, 1.15 303.44, 0 32 M0 32 C0.03 11.05, 9 0.16, 32 0 M0 32 C1.29 9.31, 10.95 0.26, 32 0" stroke="#1971c2" stroke-width="2" fill="none"></path></g><g stroke-linecap="round" transform="translate(180.6641950115561 16.363632202148438) rotate(0 255 304.99998474121094)"><path d="M32 0 C124.77 1.81, 216.92 0.84, 478 0 M32 0 C181.29 -0.35, 331.84 -0.15, 478 0 M478 0 C497.98 0.85, 508.96 9.98, 510 32 M478 0 C499.67 -0.1, 511.22 9.93, 510 32 M510 32 C510.58 243.64, 510.88 455.37, 510 578 M510 32 C511.51 231.03, 510.96 429.28, 510 578 M510 578 C508.98 597.66, 499.53 609.76, 478 610 M510 578 C507.71 597.74, 497.66 610.04, 478 610 M478 610 C350.05 610.04, 221.37 610.05, 32 610 M478 610 C381.37 610.38, 285.82 610.02, 32 610 M32 610 C12.4 608.5, -0.7 601.24, 0 578 M32 610 C12.91 608.28, -1.43 597.71, 0 578 M0 578 C0.47 404.38, 1.28 230.16, 0 32 M0 578 C-0.95 432.94, -0.9 288.36, 0 32 M0 32 C-1.42 11.01, 11.26 -0.78, 32 0 M0 32 C0.95 10.4, 8.98 -2.04, 32 0" stroke="#1e1e1e" stroke-width="2" fill="none"></path></g><g transform="translate(1574.3004865154624 36.36363220214844) rotate(0 58.30833435058594 12.5)"><text x="0" y="17.52" font-family="Virgil, Segoe UI Emoji" font-size="20px" fill="#1e1e1e" text-anchor="start" style="white-space: pre;" direction="ltr" dominant-baseline="alphabetic">ZONE LESS</text></g><g stroke-linecap="round" transform="translate(409.75507635921235 914.5454326503536) rotate(0 290.45452880859375 42.72727966308594)"><path d="M21.36 0 C232.4 0.34, 444.77 -0.55, 559.55 0 M21.36 0 C222.21 1.76, 423.33 2.42, 559.55 0 M559.55 0 C573.54 -0.01, 580.24 6.68, 580.91 21.36 M559.55 0 C575.9 0.63, 579.65 6.6, 580.91 21.36 M580.91 21.36 C582.31 29.51, 582.32 41.68, 580.91 64.09 M580.91 21.36 C581.6 34.49, 581.32 46.36, 580.91 64.09 M580.91 64.09 C582.22 80.3, 573.83 86.88, 559.55 85.45 M580.91 64.09 C580.1 78.67, 575.09 83.82, 559.55 85.45 M559.55 85.45 C446.76 86.29, 335.41 85.02, 21.36 85.45 M559.55 85.45 C388.05 84.93, 216.78 84.78, 21.36 85.45 M21.36 85.45 C7.83 86.65, 1.03 78.81, 0 64.09 M21.36 85.45 C9.36 84.63, 0.81 78.7, 0 64.09 M0 64.09 C1.52 53.45, 0.1 41.62, 0 21.36 M0 64.09 C-0.1 50.29, -0.52 36.68, 0 21.36 M0 21.36 C0.74 6.32, 8.7 0.6, 21.36 0 M0 21.36 C2.09 6.59, 5.54 0.77, 21.36 0" stroke="#1e1e1e" stroke-width="2" fill="none"></path></g><g stroke-linecap="round" transform="translate(418.84601874202485 1160.909049593713) rotate(0 278.6363525390625 46.81817626953125)"><path d="M23.41 0 C195.67 -0.89, 367.27 -2.16, 533.86 0 M23.41 0 C193.66 0.45, 363.33 0.39, 533.86 0 M533.86 0 C548.51 0.94, 556.13 8.9, 557.27 23.41 M533.86 0 C547.55 1.63, 559.19 6.55, 557.27 23.41 M557.27 23.41 C557.1 35.49, 555.75 47.72, 557.27 70.23 M557.27 23.41 C557.77 36.16, 557.04 49.38, 557.27 70.23 M557.27 70.23 C557.59 85.93, 549.75 93.95, 533.86 93.64 M557.27 70.23 C559.21 87.53, 550.81 91.39, 533.86 93.64 M533.86 93.64 C384.72 91.4, 234.27 92.2, 23.41 93.64 M533.86 93.64 C390.51 93.42, 247.23 92.96, 23.41 93.64 M23.41 93.64 C6.49 92.61, 1.3 85.94, 0 70.23 M23.41 93.64 C7.36 92.63, -0.65 84.88, 0 70.23 M0 70.23 C-1.23 53.32, -0.61 37.01, 0 23.41 M0 70.23 C0.12 60.74, -1.05 50.76, 0 23.41 M0 23.41 C-0.37 7.21, 9.68 -1.31, 23.41 0 M0 23.41 C-1.36 8.6, 5.71 0.58, 23.41 0" stroke="#1e1e1e" stroke-width="2" fill="none"></path></g><g stroke-linecap="round" transform="translate(375.20966620296235 886.3635936610958) rotate(0 322.2726745605469 75.45455169677734)"><path d="M32 0 C213.1 -0.6, 394.02 -0.3, 612.55 0 M612.55 0 C632.95 -1.97, 643.79 10.36, 644.55 32 M644.55 32 C643.52 60.72, 643.59 86.28, 644.55 118.91 M644.55 118.91 C645.73 141.68, 633.88 150.93, 612.55 150.91 M612.55 150.91 C450.17 149.88, 288.88 149.86, 32 150.91 M32 150.91 C12.52 149.66, -1.71 139.93, 0 118.91 M0 118.91 C0.99 91.94, 0.8 67.5, 0 32 M0 32 C0.9 10.2, 10.25 -1.31, 32 0" stroke="#1971c2" stroke-width="2.5" fill="none" stroke-dasharray="8 10"></path></g><g stroke-linecap="round" transform="translate(360.6641950115561 1115.4545207851193) rotate(0 328.6363525390625 81.81817626953125)"><path d="M32 0 C184.12 -1.25, 336.07 -1.52, 625.27 0 M625.27 0 C646.76 0.94, 656.17 12.31, 657.27 32 M657.27 32 C655.1 53.36, 657.77 76.99, 657.27 131.64 M657.27 131.64 C658.09 153.69, 644.76 163.61, 625.27 163.64 M625.27 163.64 C493.77 163.14, 361.63 163.3, 32 163.64 M32 163.64 C10.51 162.31, -1.59 151.09, 0 131.64 M0 131.64 C0.56 109.92, 1.27 86.15, 0 32 M0 32 C1.67 11.01, 11.4 0.04, 32 0" stroke="#1971c2" stroke-width="2.5" fill="none" stroke-dasharray="8 10"></path></g><g transform="translate(412.48237128108735 953.636344515588) rotate(0 32.49166488647461 25)"><text x="0" y="17.52" font-family="Virgil, Segoe UI Emoji" font-size="20px" fill="#e03131" text-anchor="start" style="white-space: pre;" direction="ltr" dominant-baseline="alphabetic">ouput/</text><text x="0" y="42.519999999999996" font-family="Virgil, Segoe UI Emoji" font-size="20px" fill="#e03131" text-anchor="start" style="white-space: pre;" direction="ltr" dominant-baseline="alphabetic">input</text></g><g transform="translate(432.48237128108735 925.4545207851193) rotate(0 24.09088134765625 40.45454406738281)" stroke="none"><path fill="#e03131" d="M 3.60,0.36 Q 3.60,0.36 3.49,2.98 3.38,5.61 3.69,10.41 3.99,15.20 5.32,19.40 6.65,23.60 9.19,28.82 11.73,34.04 14.81,38.84 17.89,43.64 20.77,48.13 23.66,52.61 26.56,55.94 29.47,59.27 32.07,61.63 34.67,64.00 36.71,65.73 38.76,67.45 41.13,69.69 43.51,71.92 45.68,74.06 47.84,76.20 46.19,75.43 44.54,74.65 45.16,74.09 45.78,73.52 46.55,73.18 47.31,72.84 48.15,72.77 48.99,72.69 49.80,72.88 50.62,73.08 51.33,73.53 52.04,73.97 52.58,74.62 53.11,75.27 53.40,76.06 53.70,76.84 53.73,77.68 53.76,78.52 53.52,79.32 53.28,80.13 52.80,80.82 52.32,81.50 51.64,82.00 50.96,82.50 50.16,82.75 49.36,83.00 48.52,82.99 47.68,82.97 46.89,82.69 46.10,82.41 45.44,81.89 44.78,81.37 44.32,80.66 43.86,79.96 43.65,79.15 43.44,78.34 43.50,77.50 43.57,76.66 43.89,75.89 44.21,75.11 44.77,74.48 45.33,73.85 46.05,73.43 46.78,73.01 47.60,72.85 48.43,72.68 49.26,72.79 50.09,72.89 50.85,73.26 51.60,73.62 52.20,74.21 52.80,74.80 53.18,75.55 53.56,76.30 53.68,77.13 53.80,77.96 53.65,78.79 53.50,79.61 53.09,80.35 52.69,81.08 52.69,81.08 52.69,81.08 50.75,82.62 48.80,84.17 44.57,83.11 40.33,82.06 38.78,79.83 37.23,77.61 35.52,75.06 33.81,72.52 32.05,70.54 30.30,68.56 27.66,65.90 25.03,63.24 21.75,59.66 18.48,56.08 15.45,51.69 12.41,47.31 8.93,42.31 5.44,37.31 2.39,31.76 -0.65,26.20 -2.64,21.05 -4.63,15.90 -4.80,12.61 -4.97,9.32 -4.70,7.08 -4.43,4.83 -4.02,2.23 -3.60,-0.36 -3.51,-0.78 -3.41,-1.21 -3.22,-1.60 -3.02,-1.99 -2.74,-2.33 -2.46,-2.66 -2.10,-2.91 -1.75,-3.17 -1.34,-3.33 -0.94,-3.50 -0.50,-3.56 -0.07,-3.62 0.35,-3.58 0.79,-3.53 1.20,-3.39 1.61,-3.24 1.98,-3.00 2.34,-2.76 2.64,-2.44 2.94,-2.12 3.15,-1.74 3.36,-1.35 3.47,-0.93 3.59,-0.51 3.60,-0.07 3.60,0.36 3.60,0.36 L 3.60,0.36 Z"></path></g><g transform="translate(474.3005475506186 940.9090801112911) rotate(0 -27.272735595703125 31.81817626953125)" stroke="none"><path fill="#e03131" d="M 2.30,3.46 Q 2.30,3.46 -0.00,5.09 -2.30,6.73 -4.86,8.46 -7.41,10.20 -10.06,11.97 -12.72,13.75 -15.24,15.86 -17.77,17.97 -20.43,20.57 -23.10,23.16 -25.54,25.83 -27.98,28.50 -29.95,31.31 -31.93,34.11 -33.48,36.86 -35.04,39.60 -36.80,42.45 -38.55,45.31 -40.00,47.82 -41.45,50.33 -42.53,52.27 -43.60,54.21 -45.14,56.92 -46.68,59.63 -48.15,62.56 -49.61,65.48 -50.12,66.16 -50.63,66.83 -51.33,67.31 -52.02,67.79 -52.84,68.02 -53.65,68.25 -54.50,68.20 -55.34,68.16 -56.13,67.85 -56.91,67.54 -57.56,66.99 -58.21,66.45 -58.65,65.73 -59.08,65.00 -59.27,64.18 -59.45,63.35 -59.36,62.51 -59.28,61.67 -58.92,60.90 -58.57,60.13 -57.99,59.52 -57.41,58.90 -56.67,58.50 -55.92,58.11 -55.09,57.97 -54.25,57.83 -53.42,57.96 -52.58,58.09 -51.84,58.49 -51.09,58.88 -50.50,59.49 -49.92,60.10 -49.56,60.87 -49.21,61.64 -49.11,62.48 -49.02,63.32 -49.20,64.14 -49.37,64.97 -49.81,65.70 -50.24,66.42 -50.88,66.97 -51.53,67.52 -52.31,67.84 -53.10,68.15 -53.94,68.20 -54.78,68.25 -55.60,68.03 -56.41,67.80 -57.12,67.33 -57.82,66.86 -58.33,66.19 -58.85,65.52 -59.12,64.71 -59.39,63.91 -59.39,63.07 -59.40,62.22 -59.13,61.42 -58.86,60.62 -58.86,60.62 -58.86,60.62 -56.65,57.08 -54.44,53.54 -52.77,51.49 -51.10,49.43 -49.83,47.69 -48.56,45.95 -46.95,43.48 -45.33,41.02 -43.58,38.32 -41.82,35.61 -40.03,32.67 -38.24,29.72 -36.03,26.52 -33.82,23.31 -31.34,20.46 -28.86,17.60 -26.10,14.56 -23.33,11.52 -20.46,8.98 -17.59,6.45 -14.93,4.68 -12.26,2.91 -9.68,1.23 -7.10,-0.45 -4.70,-1.95 -2.30,-3.46 -1.86,-3.68 -1.41,-3.91 -0.92,-4.02 -0.43,-4.13 0.06,-4.12 0.56,-4.12 1.05,-3.99 1.53,-3.86 1.97,-3.62 2.41,-3.38 2.78,-3.04 3.15,-2.70 3.43,-2.29 3.71,-1.87 3.88,-1.40 4.05,-0.93 4.10,-0.43 4.15,0.06 4.09,0.56 4.02,1.06 3.83,1.52 3.65,1.99 3.36,2.40 3.06,2.80 2.68,3.13 2.30,3.46 2.30,3.46 L 2.30,3.46 Z"></path></g><g stroke-linecap="round" transform="translate(1067.0277814373374 1023.636344515588) rotate(0 107.727294921875 66.81817626953125)"><path d="M135 16.75 C153.68 26.36, 171.75 40.65, 188.45 50.25 M135 16.75 C146.45 23.49, 157.12 31.52, 188.45 50.25 M188.45 50.25 C214.05 68.41, 217.15 65.8, 188.45 83.75 M188.45 50.25 C216.67 69.17, 215.11 68.59, 188.45 83.75 M188.45 83.75 C172.99 91.95, 160.51 102.48, 135 116.89 M188.45 83.75 C168.89 96.34, 147.99 109.77, 135 116.89 M135 116.89 C106.85 134.22, 107.4 133.14, 81 116.89 M135 116.89 C107.61 134.1, 106.4 131.54, 81 116.89 M81 116.89 C67.11 108.95, 48.92 97.16, 27 83.75 M81 116.89 C68.05 110.58, 57.88 102.19, 27 83.75 M27 83.75 C1.53 67.66, -0.73 68.43, 27 50.25 M27 83.75 C-0.19 64.94, 1.58 65.63, 27 50.25 M27 50.25 C43.83 39.31, 62.28 29.15, 81 16.75 M27 50.25 C46.19 38.02, 64.81 26.21, 81 16.75 M81 16.75 C108.75 0.05, 106.31 -0.75, 135 16.75 M81 16.75 C109.37 -1.77, 105.7 -0.96, 135 16.75" stroke="#f08c00" stroke-width="2" fill="none"></path></g><g transform="translate(1141.781466434896 1078.0454326503536) rotate(0 33.109962463378906 12.5)"><text x="33.109962463378906" y="17.52" font-family="Virgil, Segoe UI Emoji" font-size="20px" fill="#f08c00" text-anchor="middle" style="white-space: pre;" direction="ltr" dominant-baseline="alphabetic">service</text></g><g transform="translate(1026.1187238201499 967.2726970546505) rotate(0 46.81817626953125 58.63636779785156)" stroke="none"><path fill="#f08c00" d="M 2.13,-2.33 Q 2.13,-2.33 5.22,0.59 8.31,3.52 11.05,6.36 13.80,9.19 17.47,13.02 21.14,16.84 25.87,22.20 30.61,27.55 35.96,33.18 41.30,38.81 47.29,45.71 53.27,52.62 58.63,58.38 63.99,64.13 67.89,68.74 71.79,73.34 74.54,77.20 77.29,81.06 79.55,84.53 81.81,87.99 83.67,91.34 85.53,94.68 87.17,97.26 88.82,99.85 90.19,102.99 91.56,106.12 92.68,107.95 93.80,109.78 95.12,112.05 96.44,114.33 96.76,114.90 97.07,115.47 97.19,116.11 97.31,116.75 97.21,117.39 97.12,118.04 96.83,118.62 96.53,119.20 96.07,119.66 95.60,120.11 95.02,120.40 94.43,120.68 93.79,120.77 93.14,120.85 92.50,120.72 91.86,120.59 91.30,120.27 90.73,119.94 90.30,119.45 89.87,118.97 89.62,118.37 89.37,117.77 89.32,117.12 89.27,116.47 89.44,115.84 89.60,115.21 89.95,114.66 90.31,114.11 90.82,113.71 91.33,113.31 91.94,113.09 92.56,112.87 93.21,112.85 93.86,112.84 94.48,113.04 95.10,113.23 95.63,113.62 96.15,114.00 96.53,114.53 96.90,115.07 97.09,115.69 97.27,116.32 97.25,116.97 97.23,117.62 97.00,118.23 96.77,118.84 96.36,119.34 95.95,119.84 95.39,120.19 94.84,120.54 94.21,120.69 93.58,120.84 92.93,120.78 92.28,120.72 91.68,120.46 91.09,120.20 90.60,119.76 90.12,119.32 90.12,119.32 90.12,119.32 88.47,116.28 86.82,113.24 85.90,110.97 84.98,108.70 84.02,105.88 83.07,103.06 81.68,100.23 80.30,97.41 78.73,94.18 77.17,90.95 75.05,87.56 72.93,84.17 70.31,80.50 67.68,76.84 63.85,72.34 60.01,67.85 54.56,62.05 49.11,56.24 43.18,49.47 37.25,42.69 31.79,37.04 26.32,31.39 21.61,26.20 16.90,21.01 13.10,17.23 9.30,13.46 6.76,10.71 4.23,7.97 1.04,5.15 -2.13,2.33 -2.38,2.04 -2.63,1.75 -2.80,1.41 -2.97,1.07 -3.06,0.69 -3.14,0.32 -3.13,-0.05 -3.13,-0.43 -3.03,-0.80 -2.93,-1.17 -2.75,-1.50 -2.57,-1.84 -2.31,-2.12 -2.05,-2.40 -1.73,-2.61 -1.42,-2.82 -1.06,-2.95 -0.70,-3.08 -0.32,-3.12 0.05,-3.16 0.43,-3.11 0.80,-3.05 1.16,-2.91 1.51,-2.77 1.82,-2.55 2.13,-2.33 2.13,-2.33 L 2.13,-2.33 Z"></path></g><g transform="translate(1114.3004865154624 1047.2726970546505) rotate(0 -5.45452880859375 27.727279663085938)" stroke="none"><path fill="#f08c00" d="M 4.74,-0.83 Q 4.74,-0.83 5.24,3.65 5.75,8.14 6.48,11.78 7.21,15.41 8.13,18.14 9.04,20.86 9.99,22.94 10.95,25.01 12.53,28.13 14.11,31.25 13.36,35.13 12.62,39.00 10.70,40.15 8.78,41.30 5.34,41.83 1.90,42.35 -0.04,43.25 -1.99,44.14 -4.15,45.92 -6.30,47.70 -9.06,50.05 -11.81,52.41 -13.98,55.00 -16.15,57.59 -16.78,58.09 -17.40,58.60 -18.16,58.87 -18.91,59.15 -19.71,59.17 -20.52,59.20 -21.29,58.96 -22.05,58.73 -22.71,58.26 -23.36,57.79 -23.83,57.14 -24.30,56.49 -24.54,55.72 -24.77,54.95 -24.75,54.15 -24.73,53.34 -24.45,52.59 -24.18,51.83 -23.67,51.21 -23.17,50.58 -22.49,50.15 -21.82,49.71 -21.04,49.52 -20.26,49.32 -19.46,49.39 -18.66,49.45 -17.92,49.77 -17.18,50.09 -16.58,50.62 -15.98,51.16 -15.59,51.86 -15.19,52.56 -15.04,53.35 -14.89,54.14 -14.99,54.93 -15.10,55.73 -15.46,56.45 -15.82,57.17 -16.38,57.74 -16.95,58.31 -17.67,58.66 -18.39,59.02 -19.19,59.13 -19.98,59.24 -20.77,59.09 -21.56,58.94 -22.26,58.54 -22.96,58.15 -23.50,57.55 -24.03,56.95 -24.35,56.21 -24.67,55.48 -24.74,54.68 -24.80,53.87 -24.61,53.09 -24.42,52.31 -23.98,51.64 -23.55,50.96 -23.55,50.96 -23.55,50.96 -20.95,48.22 -18.35,45.48 -15.68,42.72 -13.01,39.95 -9.78,37.08 -6.55,34.20 -3.23,32.75 0.09,31.31 2.30,31.78 4.51,32.26 3.63,30.26 2.75,28.26 1.90,25.79 1.06,23.32 0.20,20.27 -0.65,17.22 -1.63,13.42 -2.61,9.62 -3.68,5.23 -4.74,0.83 -4.77,0.25 -4.80,-0.32 -4.70,-0.89 -4.59,-1.46 -4.35,-1.99 -4.10,-2.52 -3.74,-2.97 -3.38,-3.43 -2.92,-3.78 -2.46,-4.14 -1.93,-4.37 -1.40,-4.61 -0.83,-4.71 -0.25,-4.81 0.32,-4.77 0.90,-4.73 1.45,-4.55 2.00,-4.38 2.50,-4.07 2.99,-3.77 3.40,-3.36 3.81,-2.94 4.11,-2.44 4.40,-1.94 4.57,-1.39 4.74,-0.83 4.74,-0.83 L 4.74,-0.83 Z"></path></g><g transform="translate(1117.0277814373374 1113.636344515588) rotate(0 -69.54547119140625 49.545440673828125)" stroke="none"><path fill="#f08c00" d="M 3.43,0.34 Q 3.43,0.34 3.34,2.98 3.24,5.63 2.37,8.55 1.50,11.47 0.02,14.55 -1.45,17.63 -4.20,21.32 -6.94,25.01 -9.91,29.29 -12.88,33.57 -16.04,38.01 -19.19,42.46 -23.04,46.58 -26.89,50.70 -31.23,54.32 -35.58,57.93 -40.05,61.28 -44.52,64.62 -50.20,67.93 -55.87,71.24 -62.22,74.47 -68.57,77.70 -74.62,80.87 -80.68,84.04 -86.69,86.97 -92.71,89.90 -98.19,92.22 -103.68,94.53 -107.95,95.81 -112.22,97.08 -115.40,97.84 -118.59,98.60 -121.31,99.04 -124.02,99.49 -128.17,100.57 -132.31,101.66 -134.08,102.42 -135.84,103.19 -136.35,103.22 -136.86,103.25 -137.36,103.16 -137.86,103.07 -138.33,102.86 -138.79,102.66 -139.19,102.34 -139.59,102.03 -139.91,101.63 -140.22,101.23 -140.43,100.77 -140.64,100.30 -140.74,99.80 -140.83,99.30 -140.80,98.79 -140.77,98.28 -140.62,97.80 -140.47,97.31 -140.21,96.88 -139.95,96.44 -139.59,96.08 -139.23,95.72 -138.79,95.45 -138.36,95.19 -137.87,95.04 -137.39,94.88 -135.96,95.12 -134.53,95.36 -134.00,95.79 -133.47,96.22 -133.10,96.80 -132.73,97.37 -132.57,98.04 -132.40,98.70 -132.46,99.38 -132.52,100.06 -132.79,100.69 -133.06,101.32 -133.52,101.82 -133.97,102.33 -134.57,102.67 -135.16,103.00 -135.84,103.13 -136.51,103.26 -137.18,103.17 -137.86,103.07 -138.47,102.77 -139.08,102.46 -139.57,101.98 -140.05,101.50 -140.35,100.88 -140.65,100.27 -140.75,99.59 -140.84,98.92 -140.71,98.24 -140.58,97.57 -140.24,96.98 -139.90,96.38 -139.39,95.93 -138.88,95.47 -138.26,95.20 -137.63,94.94 -136.95,94.88 -136.27,94.83 -135.60,94.99 -134.94,95.16 -134.36,95.53 -133.79,95.90 -133.36,96.43 -132.93,96.96 -132.70,97.61 -132.47,98.25 -132.45,98.93 -132.43,99.61 -132.63,100.27 -132.83,100.92 -133.23,101.47 -133.63,102.03 -134.19,102.43 -134.74,102.82 -135.40,103.02 -136.05,103.22 -136.73,103.20 -137.42,103.18 -136.63,103.19 -135.84,103.19 -136.35,103.22 -136.86,103.25 -137.36,103.16 -137.86,103.07 -138.33,102.86 -138.79,102.66 -139.19,102.34 -139.59,102.03 -139.91,101.63 -140.22,101.23 -140.43,100.77 -140.64,100.30 -140.74,99.80 -140.83,99.30 -140.80,98.79 -140.77,98.29 -140.62,97.80 -140.47,97.31 -140.21,96.88 -139.95,96.44 -139.59,96.08 -139.23,95.72 -138.79,95.45 -138.36,95.19 -137.87,95.04 -137.39,94.88 -135.61,94.18 -133.84,93.47 -131.55,93.21 -129.26,92.94 -126.94,92.76 -124.62,92.57 -122.12,92.57 -119.62,92.57 -116.68,92.28 -113.74,91.99 -109.75,90.79 -105.76,89.60 -100.42,87.34 -95.07,85.07 -89.14,82.16 -83.21,79.24 -77.14,76.02 -71.07,72.81 -64.89,69.62 -58.70,66.43 -53.33,63.25 -47.97,60.07 -43.67,56.76 -39.38,53.45 -35.39,50.01 -31.41,46.57 -27.96,42.70 -24.51,38.83 -21.58,34.32 -18.64,29.81 -15.88,25.30 -13.12,20.79 -10.99,17.36 -8.87,13.92 -6.57,9.37 -4.28,4.81 -3.86,2.23 -3.43,-0.34 -3.34,-0.75 -3.25,-1.15 -3.07,-1.53 -2.88,-1.90 -2.61,-2.22 -2.34,-2.53 -2.00,-2.78 -1.67,-3.02 -1.28,-3.18 -0.89,-3.33 -0.48,-3.39 -0.07,-3.45 0.34,-3.41 0.75,-3.37 1.14,-3.23 1.54,-3.09 1.88,-2.86 2.23,-2.63 2.52,-2.32 2.80,-2.02 3.00,-1.65 3.20,-1.29 3.31,-0.89 3.42,-0.48 3.43,-0.07 3.43,0.34 3.43,0.34 L 3.43,0.34 Z"></path></g><g transform="translate(1009.7550763592124 1185.4545207851193) rotate(0 5.45458984375 22.727264404296875)" stroke="none"><path fill="#f08c00" d="M 3.98,2.78 Q 3.98,2.78 2.12,5.37 0.25,7.96 -1.62,10.44 -3.50,12.92 -5.29,15.44 -7.09,17.95 -8.96,20.43 -10.82,22.90 -12.99,25.52 -15.15,28.13 -16.37,30.14 -17.59,32.14 -13.65,32.39 -9.71,32.64 -6.44,33.04 -3.17,33.45 0.44,34.27 4.06,35.09 7.49,35.74 10.92,36.39 14.76,37.59 18.60,38.79 21.80,39.49 25.00,40.18 27.30,40.35 29.60,40.52 30.66,40.05 31.73,39.59 32.36,39.13 33.00,38.67 33.75,38.44 34.50,38.21 35.28,38.23 36.07,38.25 36.80,38.52 37.54,38.79 38.15,39.28 38.77,39.77 39.19,40.43 39.61,41.09 39.80,41.85 39.99,42.61 39.93,43.39 39.87,44.17 39.56,44.90 39.25,45.62 38.73,46.20 38.21,46.79 37.52,47.17 36.84,47.56 36.07,47.71 35.30,47.86 34.52,47.76 33.75,47.65 33.04,47.30 32.34,46.96 31.78,46.40 31.23,45.85 30.88,45.15 30.53,44.44 30.42,43.67 30.31,42.89 30.46,42.12 30.61,41.35 30.99,40.66 31.38,39.98 31.96,39.45 32.54,38.93 33.26,38.62 33.98,38.31 34.76,38.24 35.55,38.18 36.31,38.37 37.07,38.55 37.73,38.97 38.39,39.40 38.89,40.01 39.38,40.62 39.65,41.35 39.92,42.09 39.95,42.87 39.97,43.66 39.74,44.41 39.51,45.16 39.05,45.80 38.60,46.44 38.60,46.44 38.60,46.43 33.56,47.97 28.53,49.51 25.89,49.09 23.25,48.67 19.73,47.98 16.21,47.29 12.86,46.47 9.50,45.64 5.85,45.22 2.20,44.79 -1.00,44.30 -4.21,43.81 -7.16,43.59 -10.12,43.37 -13.38,43.31 -16.64,43.25 -19.55,42.75 -22.47,42.25 -24.93,40.50 -27.39,38.76 -28.07,36.05 -28.74,33.34 -27.13,30.14 -25.51,26.95 -23.92,24.66 -22.33,22.38 -20.33,19.81 -18.33,17.24 -16.56,14.89 -14.79,12.55 -12.95,9.87 -11.10,7.19 -9.34,4.84 -7.57,2.48 -5.77,-0.15 -3.98,-2.78 -3.59,-3.22 -3.20,-3.66 -2.71,-3.99 -2.23,-4.32 -1.68,-4.52 -1.13,-4.73 -0.55,-4.79 0.03,-4.86 0.61,-4.79 1.19,-4.71 1.74,-4.50 2.28,-4.29 2.76,-3.95 3.25,-3.62 3.63,-3.17 4.02,-2.73 4.29,-2.21 4.56,-1.69 4.69,-1.12 4.83,-0.55 4.82,0.03 4.82,0.61 4.68,1.18 4.53,1.75 4.26,2.27 3.98,2.79 3.98,2.79 L 3.98,2.78 Z"></path></g><g transform="translate(1172.4823712810874 1146.3636089198849) rotate(0 80.45452880859375 44.09089660644531)" stroke="none"><path fill="#f08c00" d="M 2.82,-1.33 Q 2.82,-1.33 4.85,3.14 6.88,7.61 9.52,12.58 12.15,17.56 15.34,23.06 18.54,28.57 22.18,33.71 25.82,38.84 29.89,43.29 33.96,47.74 43.34,53.93 52.71,60.12 66.54,66.40 80.36,72.68 94.43,75.83 108.50,78.98 120.45,80.34 132.41,81.69 140.46,82.81 148.51,83.92 151.95,84.33 155.39,84.73 153.07,81.99 150.75,79.25 150.52,78.66 150.29,78.06 150.27,77.42 150.24,76.78 150.42,76.17 150.60,75.56 150.97,75.03 151.34,74.51 151.85,74.13 152.37,73.75 152.98,73.56 153.58,73.37 154.22,73.38 154.86,73.39 155.46,73.60 156.07,73.81 156.57,74.21 157.07,74.60 157.42,75.14 157.77,75.67 157.93,76.29 158.09,76.91 158.05,77.54 158.00,78.18 157.76,78.77 157.51,79.36 157.09,79.84 156.67,80.32 156.12,80.64 155.57,80.96 154.94,81.09 154.31,81.22 153.68,81.14 153.05,81.06 152.47,80.78 151.89,80.50 151.44,80.06 150.98,79.61 150.69,79.04 150.40,78.47 150.31,77.84 150.21,77.21 150.33,76.58 150.44,75.95 150.75,75.39 151.06,74.83 151.53,74.40 152.00,73.97 152.58,73.71 153.17,73.45 153.80,73.39 154.44,73.33 155.06,73.48 155.68,73.63 156.22,73.96 156.77,74.30 157.17,74.80 157.58,75.29 157.58,75.29 157.58,75.29 158.83,77.74 160.08,80.19 160.49,82.92 160.90,85.65 158.24,87.94 155.58,90.23 151.68,89.70 147.78,89.16 139.80,88.06 131.81,86.97 119.57,85.57 107.33,84.18 92.75,80.87 78.17,77.56 63.95,71.09 49.73,64.62 39.85,58.04 29.97,51.45 25.65,46.76 21.32,42.06 17.50,36.74 13.68,31.42 10.37,25.86 7.07,20.31 4.27,15.23 1.47,10.15 -0.67,5.74 -2.82,1.33 -2.94,0.97 -3.06,0.61 -3.09,0.23 -3.12,-0.13 -3.05,-0.50 -2.99,-0.87 -2.84,-1.22 -2.70,-1.57 -2.47,-1.87 -2.24,-2.17 -1.95,-2.40 -1.66,-2.64 -1.32,-2.80 -0.97,-2.96 -0.61,-3.04 -0.24,-3.11 0.13,-3.09 0.51,-3.08 0.87,-2.97 1.23,-2.87 1.55,-2.68 1.88,-2.49 2.15,-2.22 2.42,-1.96 2.62,-1.64 2.82,-1.33 2.82,-1.33 L 2.82,-1.33 Z"></path></g><g transform="translate(1311.5731915935874 1189.0908733241818) rotate(0 9.54547119140625 37.272735595703125)" stroke="none"><path fill="#f08c00" d="M 3.68,-1.84 Q 3.68,-1.84 5.37,1.88 7.06,5.61 9.20,9.47 11.34,13.33 13.93,16.69 16.53,20.06 19.01,22.76 21.48,25.47 24.06,27.84 26.63,30.20 28.58,32.39 30.52,34.58 31.99,36.59 33.46,38.59 34.91,41.05 36.37,43.51 37.76,47.13 39.14,50.76 40.28,53.81 41.43,56.85 41.96,59.78 42.49,62.70 41.16,65.32 39.82,67.94 36.59,69.19 33.37,70.43 28.89,70.45 24.41,70.46 18.51,70.57 12.60,70.69 6.31,71.43 0.02,72.17 -4.57,73.43 -9.18,74.69 -13.15,76.10 -17.13,77.52 -17.72,77.60 -18.31,77.68 -18.90,77.57 -19.48,77.46 -20.00,77.16 -20.52,76.87 -20.92,76.43 -21.32,75.98 -21.56,75.43 -21.80,74.89 -21.85,74.29 -21.89,73.70 -21.75,73.12 -21.61,72.54 -21.29,72.03 -20.97,71.53 -20.50,71.15 -20.03,70.78 -19.47,70.57 -18.91,70.37 -18.32,70.35 -17.72,70.33 -17.15,70.51 -16.58,70.68 -16.09,71.03 -15.61,71.38 -15.26,71.86 -14.91,72.35 -14.73,72.92 -14.56,73.49 -14.57,74.09 -14.59,74.68 -14.79,75.24 -15.00,75.81 -15.37,76.27 -15.75,76.74 -16.25,77.06 -16.75,77.38 -17.33,77.53 -17.91,77.67 -18.51,77.62 -19.10,77.58 -19.65,77.34 -20.20,77.10 -20.64,76.71 -21.09,76.31 -21.38,75.79 -21.68,75.27 -21.79,74.68 -21.90,74.09 -21.82,73.50 -21.74,72.91 -21.48,72.38 -21.21,71.84 -20.79,71.42 -20.37,70.99 -19.84,70.73 -19.30,70.46 -19.30,70.46 -19.30,70.46 -15.20,69.39 -11.09,68.31 -6.05,66.69 -1.01,65.07 5.56,63.94 12.14,62.82 18.05,62.23 23.97,61.65 28.74,60.68 33.52,59.72 32.48,56.77 31.44,53.82 30.15,50.70 28.86,47.59 26.74,43.39 24.61,39.19 23.27,37.17 21.93,35.15 19.24,32.53 16.55,29.91 14.01,27.03 11.47,24.16 8.41,20.54 5.35,16.93 2.80,12.97 0.25,9.02 -1.71,5.43 -3.68,1.84 -3.85,1.37 -4.02,0.90 -4.07,0.41 -4.12,-0.08 -4.05,-0.57 -3.98,-1.06 -3.79,-1.52 -3.61,-1.98 -3.32,-2.39 -3.03,-2.79 -2.65,-3.11 -2.27,-3.43 -1.83,-3.66 -1.38,-3.88 -0.90,-3.99 -0.41,-4.10 0.08,-4.09 0.57,-4.08 1.05,-3.95 1.53,-3.82 1.97,-3.58 2.40,-3.34 2.77,-3.00 3.13,-2.67 3.41,-2.25 3.68,-1.84 3.68,-1.84 L 3.68,-1.84 Z"></path></g><g stroke-linecap="round" transform="translate(1217.0277814373374 1095.4545818202755) rotate(0 17.272705078125 22.272735595703125)"><path d="M22.5 5.75 C27.56 10.17, 30.1 14.64, 30.05 17.25 C36.94 24.32, 32.55 22.77, 30.05 28.75 C25.94 30.73, 26.15 37.95, 22.5 38.8 C15.22 43.54, 17.2 46.3, 13.5 38.8 C9.67 37.85, 8.48 32.79, 4.5 28.75 C-1.3 23.22, 3.47 22.47, 4.5 17.25 C8.19 12.99, 8.89 8.23, 13.5 5.75 C19.58 -1.31, 16.06 -0.56, 22.5 5.75" stroke="none" stroke-width="0" fill="#a5d8ff"></path><path d="M22.5 5.75 C25.36 7.85, 26.51 12.58, 30.05 17.25 M22.5 5.75 C25.47 9.84, 27.85 13.27, 30.05 17.25 M30.05 17.25 C35.91 23.34, 34.76 21.25, 30.05 28.75 M30.05 17.25 C35.5 24.54, 33.54 22.64, 30.05 28.75 M30.05 28.75 C26.97 33.57, 23.4 35.74, 22.5 38.8 M30.05 28.75 C27.25 32.58, 25.27 34.82, 22.5 38.8 M22.5 38.8 C17.54 44.89, 16.87 45.96, 13.5 38.8 M22.5 38.8 C19.96 45.02, 16.18 45.8, 13.5 38.8 M13.5 38.8 C10.2 36.19, 8.36 33.61, 4.5 28.75 M13.5 38.8 C10.38 36.54, 8.04 32.51, 4.5 28.75 M4.5 28.75 C0.22 22.73, -1.48 22.78, 4.5 17.25 M4.5 28.75 C1.42 23.84, 0.49 23.88, 4.5 17.25 M4.5 17.25 C6.79 12.98, 11.5 9.17, 13.5 5.75 M4.5 17.25 C6.76 14.41, 8.46 13.03, 13.5 5.75 M13.5 5.75 C18.41 -1.27, 19.59 -0.67, 22.5 5.75 M13.5 5.75 C16.83 -1.98, 19.83 1.07, 22.5 5.75" stroke="#1971c2" stroke-width="2" fill="none"></path></g><g stroke-linecap="round" transform="translate(1341.5732526287436 1093.2726970546505) rotate(0 20 35)"><path d="M26.25 9 C25.32 13.55, 33.19 16.92, 34.75 27 C42.92 37.07, 41.03 36.46, 34.75 45 C33.58 47.78, 26.46 55.9, 26.25 61 C22.05 71.07, 20.39 69.56, 15.75 61 C8.82 55.73, 7.75 48.81, 5.25 45 C-2.08 38.99, -2.5 33.92, 5.25 27 C5.1 23.04, 10.77 18.71, 15.75 9 C17.44 -1.57, 17.44 0.79, 26.25 9" stroke="none" stroke-width="0" fill="#ffec99"></path><path d="M26.25 9 C27.32 12.57, 30.84 17.5, 34.75 27 M26.25 9 C29.63 14.6, 32.34 21.76, 34.75 27 M34.75 27 C39.34 34.6, 38.37 35.99, 34.75 45 M34.75 27 C40.93 35.55, 38.34 37.28, 34.75 45 M34.75 45 C32.62 49.31, 30.76 51.61, 26.25 61 M34.75 45 C33.43 48.76, 30.52 51.75, 26.25 61 M26.25 61 C19.68 69.57, 22.39 69.93, 15.75 61 M26.25 61 C19.68 69.83, 22.34 68.5, 15.75 61 M15.75 61 C11.63 57.34, 8.79 51.97, 5.25 45 M15.75 61 C13.58 56.21, 10.56 52.69, 5.25 45 M5.25 45 C1.05 37.98, -0.54 36.01, 5.25 27 M5.25 45 C-0.34 35.82, -1.37 35.75, 5.25 27 M5.25 27 C7.78 20.39, 12.12 12.05, 15.75 9 M5.25 27 C9.36 21.32, 11.45 15.44, 15.75 9 M15.75 9 C20.43 1.27, 20.8 0.31, 26.25 9 M15.75 9 C22.23 0.05, 20.92 1.1, 26.25 9" stroke="#1971c2" stroke-width="2" fill="none"></path></g><g stroke-linecap="round"><g transform="translate(1399.7550763592124 941.8181682460568) rotate(0 -78.13415494067124 79.44254395847668)"><path d="M0.43 0.56 C-25.4 26.97, -130 132.99, -155.96 159.07 M-0.8 -0.19 C-26.68 25.84, -130.9 131.08, -156.7 157.42" stroke="#1971c2" stroke-width="2" fill="none"></path></g><g transform="translate(1399.7550763592124 941.8181682460568) rotate(0 -78.13415494067124 79.44254395847668)"><path d="M-146.3 134.69 C-147.55 140.43, -149.31 146.49, -156.7 157.42 M-146.3 134.69 C-148 140.27, -150.93 143.45, -156.7 157.42" stroke="#1971c2" stroke-width="2" fill="none"></path></g><g transform="translate(1399.7550763592124 941.8181682460568) rotate(0 -78.13415494067124 79.44254395847668)"><path d="M-134.12 146.69 C-138.13 149.82, -142.58 153.22, -156.7 157.42 M-134.12 146.69 C-138.24 149.85, -143.72 150.52, -156.7 157.42" stroke="#1971c2" stroke-width="2" fill="none"></path></g></g><mask></mask><g transform="translate(1380.6641339763999 909.0909038417599) rotate(0 77.875 12.5)"><text x="0" y="17.52" font-family="Virgil, Segoe UI Emoji" font-size="20px" fill="#1971c2" text-anchor="start" style="white-space: pre;" direction="ltr" dominant-baseline="alphabetic">BehaviorSubject</text></g><g stroke-linecap="round"><g transform="translate(1489.7550763592124 1053.636344515588) rotate(0 -53.22378523317627 33.11734012420288)"><path d="M-0.52 0.09 C-18.44 10.84, -90.05 54.84, -107.85 65.55 M1.4 -0.9 C-16.08 10.57, -87.19 56.14, -105.44 67.14" stroke="#f08c00" stroke-width="2" fill="none"></path></g><g transform="translate(1489.7550763592124 1053.636344515588) rotate(0 -53.22378523317627 33.11734012420288)"><path d="M-90.05 47.44 C-93.88 51.74, -98.05 57.92, -105.44 67.14 M-90.05 47.44 C-92.92 51.44, -96.45 54.98, -105.44 67.14" stroke="#f08c00" stroke-width="2" fill="none"></path></g><g transform="translate(1489.7550763592124 1053.636344515588) rotate(0 -53.22378523317627 33.11734012420288)"><path d="M-80.99 61.95 C-87.41 62.28, -94.03 64.53, -105.44 67.14 M-80.99 61.95 C-85.65 62.93, -91.05 63.47, -105.44 67.14" stroke="#f08c00" stroke-width="2" fill="none"></path></g></g><mask></mask><g transform="translate(1481.5731915935874 1029.9999919765255) rotate(0 27.25 12.5)"><text x="0" y="17.52" font-family="Virgil, Segoe UI Emoji" font-size="20px" fill="#f08c00" text-anchor="start" style="white-space: pre;" direction="ltr" dominant-baseline="alphabetic">Signal</text></g><g transform="translate(926.1187238201499 747.272716333059) rotate(0 43.06666564941406 12.5)"><text x="0" y="17.52" font-family="Virgil, Segoe UI Emoji" font-size="20px" fill="#2f9e44" text-anchor="start" style="white-space: pre;" direction="ltr" dominant-baseline="alphabetic">F.I.R.S.T</text></g><g stroke-linecap="round" transform="translate(442.48237128108735 1618.1818269619275) rotate(0 521.8181762695312 275.4545364379883)"><path d="M32 0 C297.28 -1.52, 561.35 -1.63, 1011.64 0 M1011.64 0 C1031.98 1.84, 1041.9 10, 1043.64 32 M1043.64 32 C1045.89 199.09, 1045.51 366.7, 1043.64 518.91 M1043.64 518.91 C1044.08 541.89, 1034.31 550.79, 1011.64 550.91 M1011.64 550.91 C688.92 549.52, 367.7 549.82, 32 550.91 M32 550.91 C11.46 550.75, -0.49 541.49, 0 518.91 M0 518.91 C1.1 334.16, 2.02 148.21, 0 32 M0 32 C1.66 10.51, 9.24 -1.58, 32 0" stroke="#2f9e44" stroke-width="2.5" fill="none" stroke-dasharray="8 10"></path></g><g transform="translate(500.66413397639985 1599.090884579115) rotate(0 298.3083190917969 12.5)"><text x="0" y="17.52" font-family="Virgil, Segoe UI Emoji" font-size="20px" fill="#2f9e44" text-anchor="start" style="white-space: pre;" direction="ltr" dominant-baseline="alphabetic">Workspace = dossier =&gt; recevoir N applications / N librairies</text></g><g stroke-linecap="round" transform="translate(463.39142889827485 2080.9090761074353) rotate(0 84.54544067382812 27.727264404296875)"><path d="M1.82 5.56 C1.82 5.56, 1.82 5.56, 1.82 5.56 M1.82 5.56 C1.82 5.56, 1.82 5.56, 1.82 5.56 M0.64 19.11 C3.16 14.54, 11.19 8.99, 17.05 0.24 M0.64 19.11 C7.5 11.23, 12.44 5.22, 17.05 0.24 M0.78 31.15 C10.88 20.69, 21.3 8.12, 27.68 0.21 M0.78 31.15 C10.42 20.71, 19.08 8.84, 27.68 0.21 M0.91 43.19 C10.13 30.8, 19.6 20.62, 38.31 0.17 M0.91 43.19 C12.09 28.64, 24.53 14.63, 38.31 0.17 M4.32 51.46 C17.69 39.28, 30.57 21.44, 48.28 0.89 M4.32 51.46 C20.37 33.02, 37.94 13.4, 48.28 0.89 M11.67 55.2 C25.79 36.49, 42.71 22.38, 58.91 0.86 M11.67 55.2 C29.07 34.05, 47.85 13.5, 58.91 0.86 M22.3 55.16 C37.3 41.65, 48.19 23.35, 69.54 0.83 M22.3 55.16 C35.94 39.03, 48.48 24.77, 69.54 0.83 M32.93 55.13 C47.74 35.1, 63.65 19.61, 80.17 0.79 M32.93 55.13 C48.37 37.62, 63.85 18.32, 80.17 0.79 M43.56 55.1 C59.23 35.78, 79.56 16.08, 90.8 0.76 M43.56 55.1 C61.9 33.97, 79.72 13.6, 90.8 0.76 M54.19 55.06 C69.86 37.65, 87.26 18.95, 101.43 0.72 M54.19 55.06 C71.02 36.31, 88.29 15.95, 101.43 0.72 M64.82 55.03 C74.93 42.18, 84.43 28.95, 112.06 0.69 M64.82 55.03 C78.17 41.69, 89.35 27.41, 112.06 0.69 M75.45 54.99 C94.7 34.21, 111.61 13.46, 122.69 0.65 M75.45 54.99 C89.2 39.04, 101.48 22.94, 122.69 0.65 M86.08 54.96 C96.26 43.56, 109.48 30.35, 132.67 1.37 M86.08 54.96 C98.87 39.8, 111.17 25.9, 132.67 1.37 M96.06 55.68 C105.71 41.76, 120.05 29.08, 143.3 1.34 M96.06 55.68 C114.4 35.98, 131.4 13.64, 143.3 1.34 M106.69 55.64 C115.19 43.37, 124.98 33.59, 153.93 1.3 M106.69 55.64 C120.88 41.74, 133.58 26.66, 153.93 1.3 M117.32 55.61 C128.33 40.12, 145.09 26.7, 163.24 2.78 M117.32 55.61 C130.93 38.69, 145.58 23.17, 163.24 2.78 M127.95 55.57 C137.47 45.26, 145.28 32.37, 168.62 8.78 M127.95 55.57 C139.11 41.13, 152.88 26.44, 168.62 8.78 M138.58 55.54 C143.9 49.06, 150.72 41.09, 169.41 20.07 M138.58 55.54 C145.88 47.85, 152.77 40.59, 169.41 20.07 M149.21 55.5 C155.34 50.93, 160.28 42.4, 168.89 32.86 M149.21 55.5 C154.22 49.52, 159.24 44.65, 168.89 32.86 M160.5 54.72 C164.84 51.08, 166.22 47.85, 169.02 44.9 M160.5 54.72 C162.5 53.01, 164.21 49.57, 169.02 44.9" stroke="#ffec99" stroke-width="1" fill="none"></path><path d="M13.86 0 C53.34 -1.46, 94.3 -1.29, 155.23 0 M13.86 0 C65.52 0.63, 118.12 1.39, 155.23 0 M155.23 0 C165.37 -0.15, 169.95 6.19, 169.09 13.86 M155.23 0 C166.43 -0.66, 169.4 4.37, 169.09 13.86 M169.09 13.86 C168.6 22.93, 170.36 31.38, 169.09 41.59 M169.09 13.86 C169.49 24.21, 169.62 32.86, 169.09 41.59 M169.09 41.59 C167.62 51.63, 163.01 57.19, 155.23 55.45 M169.09 41.59 C169.22 49.35, 165.01 54.93, 155.23 55.45 M155.23 55.45 C101.53 54.91, 49.54 54.99, 13.86 55.45 M155.23 55.45 C126.23 55.57, 95.69 57.41, 13.86 55.45 M13.86 55.45 C3.01 55.49, 0.59 50.25, 0 41.59 M13.86 55.45 C6.31 54.18, -0.61 49.66, 0 41.59 M0 41.59 C-1.37 32.32, -1.72 24.05, 0 13.86 M0 41.59 C0.32 31.56, -0.4 20.7, 0 13.86 M0 13.86 C1.83 6.11, 3.45 -1.07, 13.86 0 M0 13.86 C0.42 5.1, 3.26 -1.82, 13.86 0" stroke="#1e1e1e" stroke-width="2" fill="none"></path></g><g transform="translate(490.6469144329428 2096.136340511732) rotate(0 57.289955139160156 12.5)"><text x="57.289955139160156" y="17.52" font-family="Virgil, Segoe UI Emoji" font-size="20px" fill="#1971c2" text-anchor="middle" style="white-space: pre;" direction="ltr" dominant-baseline="alphabetic">angular.json</text></g><g stroke-linecap="round" transform="translate(647.0277814373374 1738.1817811855603) rotate(0 136.81817626953125 36.81817626953125)"><path d="M18.41 0 C100.55 -1.15, 180.07 -1.5, 255.23 0 M18.41 0 C108.61 0.06, 199.89 0.86, 255.23 0 M255.23 0 C268.26 -1.28, 272.12 4.4, 273.64 18.41 M255.23 0 C266.53 -2.19, 273.34 8.42, 273.64 18.41 M273.64 18.41 C275.4 24.38, 275.3 33.06, 273.64 55.23 M273.64 18.41 C274.42 27.76, 273.67 38.69, 273.64 55.23 M273.64 55.23 C275.11 66.91, 266.29 75.06, 255.23 73.64 M273.64 55.23 C275.74 69.45, 269.21 71.56, 255.23 73.64 M255.23 73.64 C192.49 73.68, 130.75 75.07, 18.41 73.64 M255.23 73.64 C160.28 73.26, 66.01 73.98, 18.41 73.64 M18.41 73.64 C6.55 71.86, -0.49 67.1, 0 55.23 M18.41 73.64 C6.99 74.73, 0.23 66.52, 0 55.23 M0 55.23 C0.79 48.77, 1.05 39.65, 0 18.41 M0 55.23 C0.62 41.32, 0.41 27.06, 0 18.41 M0 18.41 C0.5 7.9, 6.58 1.65, 18.41 0 M0 18.41 C0.37 5.2, 6.94 -1.21, 18.41 0" stroke="#1971c2" stroke-width="2" fill="none"></path></g><g transform="translate(747.7550763592124 1765.7272523769666) rotate(0 58.79999923706055 12.5)"><text x="0" y="17.52" font-family="Virgil, Segoe UI Emoji" font-size="20px" fill="#1971c2" text-anchor="start" style="white-space: pre;" direction="ltr" dominant-baseline="alphabetic">application 1</text></g><g stroke-linecap="round" transform="translate(1061.3005475506186 1739.2727235683728) rotate(0 136.81817626953125 36.81817626953125)"><path d="M18.41 0 C65.56 0.34, 114.99 1.26, 255.23 0 M18.41 0 C68.8 -1.09, 118.4 -1.68, 255.23 0 M255.23 0 C268.01 1.22, 271.65 6.04, 273.64 18.41 M255.23 0 C269.4 1.82, 273.99 7.22, 273.64 18.41 M273.64 18.41 C272.45 27.7, 271.97 35.74, 273.64 55.23 M273.64 18.41 C273.22 28.12, 273.71 40.06, 273.64 55.23 M273.64 55.23 C275.27 65.83, 267.22 75.21, 255.23 73.64 M273.64 55.23 C271.67 65.38, 267.99 71.85, 255.23 73.64 M255.23 73.64 C196.19 71.68, 135.62 71.89, 18.41 73.64 M255.23 73.64 C178.48 74.17, 100.71 74.24, 18.41 73.64 M18.41 73.64 C6.89 75.05, 0.45 66.42, 0 55.23 M18.41 73.64 C4.65 74.79, 1.76 68.63, 0 55.23 M0 55.23 C0.71 44.72, 0.32 38.83, 0 18.41 M0 55.23 C-0.54 44.25, -0.03 33.96, 0 18.41 M0 18.41 C1.86 5.03, 4.56 1.01, 18.41 0 M0 18.41 C-0.45 5.66, 5.1 -2.14, 18.41 0" stroke="#1971c2" stroke-width="2" fill="none"></path></g><g transform="translate(1135.2187757000327 1763.590899837904) rotate(0 62.89994812011719 12.5)"><text x="62.89994812011719" y="17.52" font-family="Virgil, Segoe UI Emoji" font-size="20px" fill="#1971c2" text-anchor="middle" style="white-space: pre;" direction="ltr" dominant-baseline="alphabetic">application 3</text></g><g stroke-linecap="round" transform="translate(959.7550763592124 1892.7272218593885) rotate(0 107.272705078125 60)"><path d="M135 15.25 C150.41 24.91, 163.38 32.54, 187.55 45.75 M135 15.25 C156.5 28.04, 176.15 40.6, 187.55 45.75 M187.55 45.75 C215.33 59.27, 212.79 59.98, 187.55 76.25 M187.55 45.75 C212.81 59.59, 215.63 63.09, 187.55 76.25 M187.55 76.25 C168.15 86.33, 151.89 93, 135 104.75 M187.55 76.25 C169.04 85.55, 150.65 97.43, 135 104.75 M135 104.75 C106.79 121.5, 109.72 118.13, 81 104.75 M135 104.75 C109.49 120.78, 106.97 121.16, 81 104.75 M81 104.75 C67.87 99.29, 57.14 92.46, 27 76.25 M81 104.75 C70.85 99.72, 59.27 92.36, 27 76.25 M27 76.25 C1.09 60.15, 1.01 59.9, 27 45.75 M27 76.25 C-0.96 61.36, 0.08 58.92, 27 45.75 M27 45.75 C43.55 37.9, 58.72 27.4, 81 15.25 M27 45.75 C43.76 34.52, 61.07 26.09, 81 15.25 M81 15.25 C107.16 0.15, 109.85 -1.13, 135 15.25 M81 15.25 C108.37 -0.42, 106.59 -0.64, 135 15.25" stroke="#f08c00" stroke-width="2" fill="none"></path></g><g transform="translate(1024.1614713177084 1940.2272218593885) rotate(0 42.729957580566406 12.5)"><text x="42.729957580566406" y="17.52" font-family="Virgil, Segoe UI Emoji" font-size="20px" fill="#f08c00" text-anchor="middle" style="white-space: pre;" direction="ltr" dominant-baseline="alphabetic">librairie 1</text></g><g transform="translate(1140.6641339763999 1913.636309994154) rotate(0 43.6363525390625 -53.18180847167969)" stroke="none"><path fill="#f08c00" d="M -0.49,-3.49 Q -0.49,-3.49 3.15,-4.02 6.80,-4.55 10.44,-5.67 14.08,-6.78 18.18,-8.71 22.27,-10.63 26.38,-12.98 30.48,-15.32 34.83,-18.11 39.18,-20.90 42.43,-24.02 45.68,-27.14 48.71,-30.08 51.74,-33.02 53.23,-35.70 54.72,-38.38 56.10,-41.33 57.48,-44.29 58.16,-46.55 58.84,-48.80 59.28,-51.18 59.72,-53.56 60.46,-56.53 61.20,-59.50 61.70,-62.21 62.20,-64.92 62.74,-68.32 63.29,-71.72 63.54,-75.14 63.79,-78.56 63.87,-81.85 63.95,-85.14 63.92,-88.11 63.90,-91.08 63.79,-93.38 63.69,-95.69 63.47,-98.47 63.25,-101.24 63.32,-101.83 63.40,-102.42 63.61,-102.98 63.82,-103.53 64.16,-104.02 64.50,-104.50 64.95,-104.90 65.39,-105.29 65.92,-105.56 66.45,-105.83 67.02,-105.97 67.60,-106.11 68.19,-106.11 68.79,-106.11 69.36,-105.96 69.94,-105.82 70.46,-105.54 70.99,-105.26 71.43,-104.87 71.87,-104.47 72.21,-103.98 72.54,-103.49 72.75,-102.94 72.96,-102.38 73.03,-101.79 73.09,-101.20 71.32,-98.08 69.54,-94.96 67.65,-92.52 65.76,-90.08 63.73,-87.39 61.70,-84.71 59.85,-82.78 58.00,-80.84 56.33,-79.19 54.66,-77.53 53.01,-75.68 51.36,-73.84 49.61,-72.19 47.87,-70.55 46.67,-69.56 45.46,-68.58 44.89,-68.16 44.32,-67.75 43.67,-67.48 43.01,-67.21 42.31,-67.11 41.62,-67.01 40.91,-67.08 40.21,-67.15 39.54,-67.38 38.88,-67.62 38.29,-68.01 37.70,-68.39 37.22,-68.91 36.74,-69.43 36.39,-70.05 36.05,-70.66 35.86,-71.34 35.68,-72.03 35.66,-72.73 35.65,-73.44 35.80,-74.13 35.95,-74.82 36.27,-75.45 36.58,-76.08 37.03,-76.62 37.49,-77.16 39.53,-80.64 41.57,-84.13 43.21,-86.07 44.84,-88.02 47.35,-90.49 49.86,-92.95 51.86,-95.14 53.85,-97.33 55.76,-99.55 57.67,-101.77 60.10,-104.65 62.53,-107.53 65.89,-109.33 69.25,-111.12 71.73,-110.72 74.21,-110.33 76.58,-107.81 78.96,-105.30 79.96,-103.17 80.96,-101.04 82.57,-99.35 84.18,-97.66 86.15,-94.95 88.12,-92.25 90.56,-88.17 92.99,-84.09 93.26,-83.07 93.54,-82.05 93.47,-81.00 93.40,-79.94 93.00,-78.97 92.59,-77.99 91.90,-77.19 91.21,-76.40 90.30,-75.86 89.39,-75.33 88.35,-75.11 87.32,-74.89 86.27,-75.02 85.22,-75.15 84.27,-75.60 83.31,-76.05 82.56,-76.79 81.80,-77.52 81.31,-78.46 80.83,-79.40 80.67,-80.44 80.51,-81.49 80.69,-82.53 80.87,-83.57 81.38,-84.50 81.88,-85.43 82.66,-86.14 83.43,-86.86 84.40,-87.29 85.36,-87.73 86.41,-87.83 87.46,-87.93 88.49,-87.69 89.52,-87.46 90.42,-86.90 91.32,-86.35 91.99,-85.53 92.67,-84.72 93.05,-83.74 93.43,-82.75 93.47,-81.69 93.52,-80.64 93.23,-79.62 92.93,-78.61 92.33,-77.74 91.73,-76.87 90.88,-76.24 90.03,-75.62 89.03,-75.29 88.02,-74.96 86.97,-74.97 85.91,-74.99 84.91,-75.33 83.91,-75.68 83.08,-76.33 82.25,-76.98 81.66,-77.86 81.08,-78.74 81.08,-78.74 81.08,-78.74 79.96,-80.78 78.83,-82.81 77.53,-84.94 76.24,-87.06 74.45,-89.29 72.67,-91.52 71.30,-93.30 69.94,-95.09 70.27,-97.51 70.60,-99.94 68.20,-97.50 65.81,-95.06 63.92,-92.68 62.04,-90.31 60.02,-87.83 58.01,-85.35 56.02,-82.98 54.02,-80.61 51.46,-77.50 48.89,-74.38 47.18,-71.48 45.47,-68.58 44.89,-68.16 44.32,-67.75 43.67,-67.48 43.01,-67.21 42.31,-67.11 41.62,-67.01 40.91,-67.08 40.21,-67.15 39.54,-67.38 38.88,-67.62 38.29,-68.01 37.70,-68.39 37.22,-68.91 36.74,-69.43 36.39,-70.04 36.05,-70.66 35.86,-71.34 35.68,-72.03 35.66,-72.73 35.65,-73.44 35.80,-74.13 35.95,-74.82 36.27,-75.45 36.58,-76.08 37.03,-76.62 37.49,-77.16 38.05,-77.32 38.62,-77.48 40.77,-79.34 42.93,-81.21 44.80,-83.39 46.67,-85.58 49.53,-88.28 52.39,-90.97 55.13,-94.21 57.87,-97.44 60.56,-99.34 63.25,-101.24 63.32,-101.83 63.40,-102.42 63.61,-102.98 63.82,-103.53 64.16,-104.02 64.50,-104.50 64.95,-104.89 65.39,-105.29 65.92,-105.56 66.44,-105.83 67.02,-105.97 67.60,-106.11 68.19,-106.11 68.79,-106.11 69.36,-105.96 69.94,-105.82 70.46,-105.54 70.98,-105.26 71.43,-104.87 71.87,-104.47 72.21,-103.98 72.54,-103.49 72.75,-102.94 72.96,-102.38 73.03,-101.79 73.09,-101.20 72.86,-98.42 72.62,-95.63 72.48,-93.30 72.34,-90.97 72.23,-87.94 72.13,-84.92 72.02,-81.49 71.92,-78.06 71.73,-74.29 71.54,-70.52 71.05,-66.82 70.56,-63.13 69.86,-60.22 69.15,-57.32 68.29,-54.46 67.43,-51.59 66.57,-48.85 65.70,-46.10 64.54,-43.69 63.38,-41.27 61.65,-38.16 59.93,-35.05 57.79,-32.07 55.66,-29.08 52.64,-26.07 49.62,-23.06 46.00,-19.55 42.39,-16.04 37.97,-13.08 33.55,-10.12 29.32,-7.53 25.08,-4.95 20.63,-2.66 16.17,-0.37 12.00,1.04 7.82,2.46 4.16,2.97 0.49,3.49 0.07,3.50 -0.35,3.51 -0.76,3.42 -1.18,3.32 -1.56,3.13 -1.94,2.94 -2.26,2.67 -2.59,2.39 -2.84,2.05 -3.09,1.70 -3.25,1.31 -3.41,0.91 -3.47,0.49 -3.53,0.07 -3.48,-0.34 -3.44,-0.77 -3.30,-1.17 -3.16,-1.57 -2.92,-1.93 -2.69,-2.28 -2.37,-2.57 -2.06,-2.86 -1.69,-3.06 -1.32,-3.27 -0.91,-3.38 -0.49,-3.49 -0.49,-3.49 L -0.49,-3.49 Z"></path></g><g transform="translate(1011.5731915935874 1912.7272218593885) rotate(0 -75.9090576171875 -41.81817626953125)" stroke="none"><path fill="#f08c00" d="M 2.87,2.29 Q 2.87,2.29 1.92,3.74 0.98,5.20 -3.30,6.72 -7.59,8.24 -11.34,7.04 -15.09,5.84 -19.42,3.50 -23.74,1.15 -30.45,-2.50 -37.15,-6.16 -45.45,-10.64 -53.75,-15.11 -62.53,-20.22 -71.31,-25.32 -80.19,-30.09 -89.08,-34.87 -100.20,-41.13 -111.33,-47.38 -118.15,-51.37 -124.97,-55.35 -129.50,-58.41 -134.03,-61.46 -136.97,-64.12 -139.91,-66.78 -141.88,-68.95 -143.84,-71.12 -146.10,-73.82 -148.35,-76.53 -148.95,-77.01 -149.55,-77.48 -149.70,-77.98 -149.86,-78.47 -149.90,-78.99 -149.94,-79.50 -149.85,-80.01 -149.76,-80.52 -149.55,-81.00 -149.34,-81.47 -149.03,-81.88 -148.71,-82.29 -148.31,-82.62 -147.90,-82.94 -147.43,-83.16 -146.96,-83.37 -146.45,-83.47 -145.95,-83.57 -145.43,-83.55 -144.91,-83.52 -144.41,-83.37 -143.92,-83.22 -143.47,-82.96 -143.03,-82.69 -142.66,-82.33 -142.29,-81.97 -142.01,-81.53 -141.74,-81.09 -142.12,-78.74 -142.49,-76.40 -143.14,-72.45 -143.78,-68.50 -144.90,-65.05 -146.02,-61.61 -146.34,-59.01 -146.66,-56.41 -146.69,-53.70 -146.72,-50.98 -146.85,-50.40 -146.99,-49.81 -147.26,-49.27 -147.53,-48.73 -147.92,-48.27 -148.31,-47.81 -148.80,-47.46 -149.29,-47.11 -149.85,-46.88 -150.41,-46.66 -151.01,-46.58 -151.61,-46.49 -152.21,-46.55 -152.81,-46.61 -153.37,-46.82 -153.94,-47.02 -154.44,-47.35 -154.95,-47.69 -155.36,-48.13 -155.76,-48.58 -156.05,-49.10 -156.34,-49.63 -156.50,-50.22 -156.65,-50.80 -156.67,-51.40 -156.68,-52.01 -156.80,-54.81 -156.92,-57.62 -156.84,-60.92 -156.76,-64.22 -156.59,-67.97 -156.43,-71.72 -156.04,-75.57 -155.66,-79.42 -155.05,-82.20 -154.44,-84.99 -153.18,-87.90 -151.91,-90.81 -149.59,-91.86 -147.27,-92.91 -144.02,-93.03 -140.77,-93.15 -136.87,-92.99 -132.98,-92.83 -128.99,-92.65 -124.99,-92.47 -121.99,-92.52 -118.98,-92.56 -116.40,-92.65 -113.82,-92.74 -110.42,-92.92 -107.03,-93.09 -106.24,-92.96 -105.46,-92.84 -104.75,-92.46 -104.05,-92.09 -103.50,-91.51 -102.96,-90.94 -102.62,-90.22 -102.29,-89.49 -102.20,-88.70 -102.12,-87.91 -102.29,-87.14 -102.46,-86.36 -102.87,-85.68 -103.28,-85.00 -103.88,-84.48 -104.49,-83.97 -105.23,-83.67 -105.97,-83.38 -106.76,-83.33 -107.55,-83.29 -108.32,-83.50 -109.09,-83.71 -109.75,-84.16 -110.40,-84.61 -110.89,-85.24 -111.37,-85.87 -111.62,-86.63 -111.88,-87.38 -111.88,-88.17 -111.88,-88.97 -111.62,-89.72 -111.37,-90.48 -110.89,-91.11 -110.41,-91.74 -109.75,-92.19 -109.09,-92.64 -108.32,-92.85 -107.56,-93.06 -106.76,-93.02 -105.97,-92.98 -105.23,-92.68 -104.49,-92.39 -103.89,-91.87 -103.28,-91.36 -102.87,-90.68 -102.46,-90.00 -102.29,-89.22 -102.12,-88.44 -102.20,-87.65 -102.29,-86.86 -102.62,-86.14 -102.96,-85.42 -103.50,-84.84 -104.05,-84.26 -104.75,-83.89 -105.45,-83.52 -106.24,-83.39 -107.02,-83.26 -107.02,-83.26 -107.02,-83.26 -110.41,-83.43 -113.81,-83.60 -116.38,-83.69 -118.96,-83.77 -121.96,-83.80 -124.95,-83.84 -128.92,-83.62 -132.88,-83.41 -136.65,-83.16 -140.42,-82.91 -142.63,-84.04 -144.83,-85.17 -145.88,-81.97 -146.92,-78.77 -147.06,-75.25 -147.19,-71.73 -147.02,-67.98 -146.85,-64.23 -146.76,-60.96 -146.67,-57.68 -146.69,-54.33 -146.72,-50.98 -146.85,-50.40 -146.99,-49.81 -147.26,-49.27 -147.53,-48.73 -147.92,-48.27 -148.31,-47.81 -148.80,-47.46 -149.29,-47.11 -149.85,-46.88 -150.41,-46.66 -151.01,-46.58 -151.61,-46.49 -152.21,-46.55 -152.81,-46.61 -153.37,-46.82 -153.94,-47.02 -154.44,-47.35 -154.95,-47.69 -155.35,-48.13 -155.76,-48.58 -156.05,-49.10 -156.34,-49.63 -156.50,-50.22 -156.65,-50.80 -156.67,-51.40 -156.68,-52.00 -156.19,-54.86 -155.70,-57.72 -155.17,-61.00 -154.64,-64.28 -153.74,-67.28 -152.85,-70.28 -151.20,-73.88 -149.55,-77.48 -149.70,-77.97 -149.86,-78.47 -149.90,-78.98 -149.94,-79.50 -149.85,-80.01 -149.76,-80.52 -149.55,-81.00 -149.34,-81.47 -149.03,-81.88 -148.71,-82.29 -148.31,-82.62 -147.90,-82.94 -147.43,-83.16 -146.96,-83.37 -146.45,-83.47 -145.95,-83.57 -145.43,-83.55 -144.91,-83.52 -144.41,-83.37 -143.92,-83.22 -143.47,-82.96 -143.03,-82.69 -142.66,-82.33 -142.29,-81.97 -142.01,-81.53 -141.74,-81.09 -141.37,-80.60 -141.01,-80.12 -139.75,-77.69 -138.50,-75.27 -137.15,-73.17 -135.79,-71.06 -133.36,-68.57 -130.93,-66.08 -126.53,-63.17 -122.13,-60.27 -115.31,-56.37 -108.49,-52.48 -97.37,-46.35 -86.25,-40.22 -77.21,-35.53 -68.18,-30.84 -59.40,-25.97 -50.63,-21.11 -42.22,-16.88 -33.81,-12.66 -27.02,-9.38 -20.24,-6.10 -16.19,-4.41 -12.15,-2.72 -8.65,-1.35 -5.16,0.02 -4.01,-1.13 -2.87,-2.29 -2.55,-2.60 -2.23,-2.91 -1.85,-3.14 -1.47,-3.36 -1.05,-3.49 -0.62,-3.62 -0.18,-3.64 0.25,-3.66 0.69,-3.58 1.12,-3.49 1.53,-3.31 1.93,-3.12 2.28,-2.84 2.62,-2.57 2.89,-2.22 3.16,-1.86 3.34,-1.46 3.52,-1.05 3.59,-0.62 3.67,-0.18 3.64,0.25 3.60,0.69 3.47,1.12 3.33,1.54 3.10,1.92 2.87,2.29 2.87,2.29 L 2.87,2.29 Z"></path></g><g stroke-linecap="round" transform="translate(757.1187238201499 1994.5454286464978) rotate(0 107.272705078125 60)"><path d="M135 15.25 C146.11 23.24, 159.5 31.24, 187.55 45.75 M135 15.25 C152.14 25.03, 166.6 33.75, 187.55 45.75 M187.55 45.75 C214.55 62.97, 213.6 61.51, 187.55 76.25 M187.55 45.75 C213.85 63.11, 215.4 60.35, 187.55 76.25 M187.55 76.25 C168.15 84.7, 148.67 96.07, 135 104.75 M187.55 76.25 C167.15 87.85, 145.98 98.65, 135 104.75 M135 104.75 C108.55 121.4, 106.29 120.21, 81 104.75 M135 104.75 C109.85 120.08, 106.44 119.94, 81 104.75 M81 104.75 C68.3 100.75, 60.08 92.11, 27 76.25 M81 104.75 C66.76 97.57, 53.8 90.31, 27 76.25 M27 76.25 C-0.3 62.29, -1.87 62.72, 27 45.75 M27 76.25 C-1.25 62.88, -0.76 61.8, 27 45.75 M27 45.75 C39.9 38.95, 55.72 27.64, 81 15.25 M27 45.75 C40.63 38.73, 53.01 30.93, 81 15.25 M81 15.25 C109.43 0.96, 109.05 0.75, 135 15.25 M81 15.25 C108.58 -1.89, 106.87 1.59, 135 15.25" stroke="#f08c00" stroke-width="2" fill="none"></path></g><g transform="translate(817.1151227459311 2042.0454286464978) rotate(0 47.13995361328125 12.5)"><text x="47.13995361328125" y="17.52" font-family="Virgil, Segoe UI Emoji" font-size="20px" fill="#f08c00" text-anchor="middle" style="white-space: pre;" direction="ltr" dominant-baseline="alphabetic">librairie 2</text></g><g transform="translate(959.7550763592124 2060.9090761074353) rotate(0 55.45452880859375 -20.000030517578125)" stroke="none"><path fill="#f08c00" d="M 0.75,-3.61 Q 0.75,-3.61 6.99,-2.16 13.23,-0.71 20.43,0.17 27.63,1.07 34.80,2.56 41.97,4.05 47.70,4.67 53.42,5.30 57.32,5.28 61.21,5.26 64.04,4.17 66.86,3.08 69.13,1.39 71.40,-0.29 73.96,-2.32 76.53,-4.35 78.72,-7.01 80.91,-9.67 82.57,-12.74 84.23,-15.80 85.39,-18.89 86.56,-21.97 87.52,-24.90 88.49,-27.84 89.03,-30.29 89.58,-32.75 89.70,-34.87 89.82,-37.00 89.73,-40.53 89.65,-44.06 92.24,-43.21 94.83,-42.36 91.36,-40.33 87.89,-38.31 85.47,-36.48 83.05,-34.65 82.42,-34.31 81.80,-33.97 81.19,-33.61 80.58,-33.26 79.90,-33.06 79.22,-32.86 78.52,-32.83 77.81,-32.79 77.12,-32.93 76.43,-33.07 75.79,-33.37 75.15,-33.67 74.60,-34.11 74.05,-34.56 73.62,-35.12 73.20,-35.68 72.92,-36.33 72.64,-36.98 72.52,-37.68 72.41,-38.37 72.46,-39.08 72.51,-39.78 72.73,-40.45 72.95,-41.12 73.33,-41.72 73.70,-42.32 74.21,-42.81 74.72,-43.30 77.21,-44.65 79.71,-46.00 83.11,-47.79 86.51,-49.58 88.42,-51.20 90.33,-52.82 93.85,-53.31 97.37,-53.79 99.44,-52.91 101.52,-52.02 103.04,-49.91 104.56,-47.79 105.83,-45.68 107.10,-43.58 110.00,-41.68 112.91,-39.78 113.81,-39.26 114.71,-38.73 115.40,-37.95 116.09,-37.16 116.50,-36.20 116.90,-35.23 116.97,-34.19 117.04,-33.15 116.78,-32.14 116.52,-31.12 115.94,-30.25 115.37,-29.38 114.55,-28.73 113.73,-28.08 112.74,-27.73 111.76,-27.38 110.71,-27.37 109.67,-27.35 108.67,-27.67 107.68,-27.99 106.83,-28.61 105.99,-29.23 105.39,-30.08 104.79,-30.94 104.50,-31.94 104.20,-32.94 104.24,-33.99 104.28,-35.03 104.65,-36.01 105.02,-36.99 105.69,-37.79 106.35,-38.60 107.24,-39.15 108.12,-39.71 109.14,-39.95 110.16,-40.19 111.20,-40.09 112.24,-39.99 113.20,-39.57 114.15,-39.15 114.92,-38.44 115.69,-37.73 116.20,-36.82 116.70,-35.90 116.89,-34.87 117.07,-33.84 116.92,-32.81 116.77,-31.78 116.29,-30.85 115.82,-29.91 115.07,-29.18 114.32,-28.45 113.38,-28.00 112.44,-27.55 111.40,-27.42 110.36,-27.29 109.34,-27.50 108.31,-27.70 108.32,-27.70 108.32,-27.70 106.57,-28.79 104.83,-29.87 102.36,-31.48 99.89,-33.09 98.18,-34.96 96.47,-36.83 95.18,-40.27 93.90,-43.71 96.44,-43.74 98.99,-43.77 97.22,-42.23 95.44,-40.70 92.02,-38.87 88.59,-37.03 85.19,-35.50 81.80,-33.97 81.19,-33.61 80.58,-33.26 79.90,-33.06 79.22,-32.86 78.52,-32.83 77.81,-32.79 77.12,-32.93 76.43,-33.07 75.79,-33.37 75.15,-33.67 74.60,-34.11 74.05,-34.56 73.62,-35.12 73.20,-35.68 72.92,-36.33 72.64,-36.98 72.52,-37.67 72.41,-38.37 72.46,-39.08 72.51,-39.78 72.73,-40.45 72.95,-41.12 73.33,-41.72 73.70,-42.32 74.21,-42.81 74.72,-43.30 75.43,-43.58 76.14,-43.85 78.93,-45.68 81.72,-47.51 85.67,-49.66 89.62,-51.82 93.25,-51.72 96.89,-51.62 98.21,-48.94 99.53,-46.26 99.22,-43.28 98.91,-40.29 98.63,-38.10 98.36,-35.91 97.87,-33.24 97.38,-30.58 96.49,-27.91 95.59,-25.25 94.41,-22.28 93.22,-19.31 91.79,-15.89 90.35,-12.46 88.35,-8.83 86.34,-5.19 83.61,-1.93 80.88,1.33 78.00,3.40 75.13,5.47 71.99,7.29 68.84,9.11 65.08,10.11 61.31,11.12 57.07,11.12 52.84,11.12 46.82,10.56 40.80,10.01 33.86,8.71 26.93,7.41 19.39,6.68 11.85,5.94 5.55,4.77 -0.75,3.61 -1.17,3.46 -1.59,3.32 -1.96,3.08 -2.34,2.84 -2.65,2.52 -2.95,2.20 -3.17,1.81 -3.39,1.43 -3.52,1.00 -3.64,0.57 -3.65,0.13 -3.67,-0.31 -3.58,-0.74 -3.49,-1.18 -3.30,-1.58 -3.10,-1.98 -2.82,-2.32 -2.54,-2.67 -2.18,-2.93 -1.83,-3.20 -1.42,-3.37 -1.01,-3.54 -0.57,-3.61 -0.13,-3.68 0.30,-3.64 0.75,-3.61 0.75,-3.61 L 0.75,-3.61 Z"></path></g><g stroke-linecap="round" transform="translate(722.4823102459311 2313.6363156216203) rotate(0 193.18179321289062 82.72726440429688)"><path d="M32 0 C111.9 0.57, 195.36 -1.73, 354.36 0 M32 0 C143.51 0.67, 255.77 1.15, 354.36 0 M354.36 0 C373.79 -1.27, 387.71 10.99, 386.36 32 M354.36 0 C374.4 -1.09, 386.46 10.63, 386.36 32 M386.36 32 C386.36 54.13, 388.76 74.1, 386.36 133.45 M386.36 32 C386.44 67.38, 387.86 103.89, 386.36 133.45 M386.36 133.45 C385.04 154.44, 376.24 164.48, 354.36 165.45 M386.36 133.45 C384.31 152.87, 373.41 164.97, 354.36 165.45 M354.36 165.45 C252.14 163.82, 151.38 162.15, 32 165.45 M354.36 165.45 C264.56 167.59, 175.61 166.68, 32 165.45 M32 165.45 C10.15 165.02, -0.94 155.03, 0 133.45 M32 165.45 C12.89 163.51, 0.11 154.73, 0 133.45 M0 133.45 C-1.71 92.89, -0.58 55.51, 0 32 M0 133.45 C1.4 108.34, 1.51 81.38, 0 32 M0 32 C-1.14 9.84, 8.88 0.57, 32 0 M0 32 C-1.65 9.75, 8.8 0.79, 32 0" stroke="#1971c2" stroke-width="2" fill="none"></path></g><g transform="translate(875.7550763592124 2393.090874947792) rotate(0 13.824999809265137 12.5)"><text x="0" y="17.52" font-family="Virgil, Segoe UI Emoji" font-size="20px" fill="#1971c2" text-anchor="start" style="white-space: pre;" direction="ltr" dominant-baseline="alphabetic">.ts</text></g><g stroke-linecap="round"><g transform="translate(896.1187238201499 2487.2726681606828) rotate(0 -1.5652975305914651 60.00592134268504)"><path d="M0.41 -0.87 C-0.17 18.87, -3 99.25, -3.54 119.57 M-0.83 1.28 C-1.03 21.71, -0.78 101.22, -1.26 120.89" stroke="#1971c2" stroke-width="2" fill="none"></path></g><g transform="translate(896.1187238201499 2487.2726681606828) rotate(0 -1.5652975305914651 60.00592134268504)"><path d="M-9.6 97.32 C-8.36 102.94, -5.14 111.07, -1.26 120.89 M-9.6 97.32 C-5.48 107.32, -2.53 116.56, -1.26 120.89" stroke="#1971c2" stroke-width="2" fill="none"></path></g><g transform="translate(896.1187238201499 2487.2726681606828) rotate(0 -1.5652975305914651 60.00592134268504)"><path d="M7.5 97.47 C3.65 103.1, 1.79 111.19, -1.26 120.89 M7.5 97.47 C5 107.32, 1.33 116.5, -1.26 120.89" stroke="#1971c2" stroke-width="2" fill="none"></path></g></g><mask></mask><g transform="translate(936.1187238201499 2535.4544918911515) rotate(0 16.100000381469727 12.5)"><text x="0" y="17.52" font-family="Virgil, Segoe UI Emoji" font-size="20px" fill="#1971c2" text-anchor="start" style="white-space: pre;" direction="ltr" dominant-baseline="alphabetic">tsc</text></g><g stroke-linecap="round" transform="translate(726.1186627849936 2623.6363172294677) rotate(0 184.54544067382812 62.27272033691406)"><path d="M31.14 0 C131.73 0.88, 232.97 0.08, 337.95 0 M31.14 0 C131.87 1.45, 232.93 0.81, 337.95 0 M337.95 0 C359.72 -0.88, 369.34 9.27, 369.09 31.14 M337.95 0 C357.17 -2.01, 368.96 11.67, 369.09 31.14 M369.09 31.14 C370.33 45.66, 370.36 62.67, 369.09 93.41 M369.09 31.14 C369.44 54.08, 368.97 78.03, 369.09 93.41 M369.09 93.41 C369.19 112.88, 357.32 122.78, 337.95 124.55 M369.09 93.41 C370.1 115.82, 359.57 124.48, 337.95 124.55 M337.95 124.55 C218.89 124.65, 97.64 125.85, 31.14 124.55 M337.95 124.55 C250.72 123.1, 163.11 124, 31.14 124.55 M31.14 124.55 C8.79 124.21, 1.95 114.07, 0 93.41 M31.14 124.55 C12.21 125.48, -2.2 115.25, 0 93.41 M0 93.41 C-1.84 75.43, 1.44 53.59, 0 31.14 M0 93.41 C0.39 77.91, -0.76 63.88, 0 31.14 M0 31.14 C0.18 8.56, 11.15 0.72, 31.14 0 M0 31.14 C2.03 12.17, 9.93 1.67, 31.14 0" stroke="#f08c00" stroke-width="2" fill="none"></path></g><g transform="translate(863.7550763592124 2675.2726697685302) rotate(0 34.43333435058594 12.5)"><text x="0" y="17.52" font-family="Virgil, Segoe UI Emoji" font-size="20px" fill="#f08c00" text-anchor="start" style="white-space: pre;" direction="ltr" dominant-baseline="alphabetic">js brut</text></g><g stroke-linecap="round"><g transform="translate(901.5731915935874 2756.3635816337646) rotate(0 0.06598220686180412 57.23735576482022)"><path d="M0.46 -0.94 C0.55 18.1, 0.96 94.9, 0.87 113.8 M-0.75 1.17 C-0.78 20.48, 0.41 96.75, 0.38 115.42" stroke="#2f9e44" stroke-width="2" fill="none"></path></g><g transform="translate(901.5731915935874 2756.3635816337646) rotate(0 0.06598220686180412 57.23735576482022)"><path d="M-8.36 92 C-7.13 101.18, -2.39 107.35, 0.38 115.42 M-8.36 92 C-7.47 97.01, -4.51 100.51, 0.38 115.42" stroke="#2f9e44" stroke-width="2" fill="none"></path></g><g transform="translate(901.5731915935874 2756.3635816337646) rotate(0 0.06598220686180412 57.23735576482022)"><path d="M8.74 91.86 C4.31 101.15, 3.38 107.37, 0.38 115.42 M8.74 91.86 C6.17 96.91, 5.66 100.43, 0.38 115.42" stroke="#2f9e44" stroke-width="2" fill="none"></path></g></g><mask></mask><g stroke-linecap="round" transform="translate(703.3914288982749 2873.6362867118896) rotate(0 203.6363525390625 48.18182373046875)"><path d="M24.09 0 C95.22 1.2, 168.69 -0.16, 383.18 0 M24.09 0 C130.56 0.68, 237.87 0.2, 383.18 0 M383.18 0 C398.53 -1.06, 406.22 9.25, 407.27 24.09 M383.18 0 C397.19 2.2, 407.81 8.85, 407.27 24.09 M407.27 24.09 C405.04 41.88, 405.49 60.18, 407.27 72.27 M407.27 24.09 C406.85 36.66, 407.54 50.46, 407.27 72.27 M407.27 72.27 C406.38 87.46, 399.71 95.51, 383.18 96.36 M407.27 72.27 C409.52 88.62, 399.36 95.05, 383.18 96.36 M383.18 96.36 C307.44 96.92, 230.75 99.08, 24.09 96.36 M383.18 96.36 C247.19 96.61, 110.91 96.55, 24.09 96.36 M24.09 96.36 C6.88 94.49, -0.35 88.71, 0 72.27 M24.09 96.36 C10.12 94.4, -0.21 88.59, 0 72.27 M0 72.27 C1.89 56.75, 2.02 39.68, 0 24.09 M0 72.27 C0.2 53.06, 0.29 35.73, 0 24.09 M0 24.09 C1.38 8.01, 8.65 -1.43, 24.09 0 M0 24.09 C-0.67 6.95, 6.83 1.14, 24.09 0" stroke="#2f9e44" stroke-width="2" fill="none"></path></g><g transform="translate(838.7550763592124 2918.909052825171) rotate(0 68.95833587646484 12.5)"><text x="0" y="17.52" font-family="Virgil, Segoe UI Emoji" font-size="20px" fill="#2f9e44" text-anchor="start" style="white-space: pre;" direction="ltr" dominant-baseline="alphabetic">bundle js final</text></g><g transform="translate(936.1187238201499 2789.0908765556396) rotate(0 0.00004999999998744897 0.00005000000010113581)" stroke="none"><path fill="#2f9e44" d="M 3.14,-3.14 Q 3.14,-3.14 3.55,-2.55 3.97,-1.97 4.18,-1.28 4.40,-0.59 4.38,0.11 4.36,0.83 4.11,1.51 3.86,2.18 3.41,2.74 2.96,3.30 2.36,3.69 1.75,4.07 1.05,4.25 0.36,4.42 -0.35,4.36 -1.07,4.30 -1.73,4.02 -2.39,3.74 -2.92,3.26 -3.46,2.78 -3.81,2.15 -4.16,1.53 -4.30,0.82 -4.43,0.11 -4.34,-0.59 -4.24,-1.30 -3.92,-1.94 -3.60,-2.59 -3.09,-3.09 -2.59,-3.60 -1.94,-3.92 -1.30,-4.24 -0.59,-4.34 0.12,-4.43 0.82,-4.30 1.53,-4.16 2.15,-3.81 2.78,-3.46 3.26,-2.92 3.74,-2.39 4.02,-1.73 4.31,-1.07 4.36,-0.35 4.42,0.36 4.25,1.05 4.07,1.75 3.69,2.36 3.30,2.96 2.74,3.41 2.18,3.86 1.51,4.11 0.83,4.36 0.11,4.38 -0.60,4.40 -1.28,4.18 -1.97,3.97 -2.55,3.55 -3.14,3.13 -3.14,3.14 -3.14,3.14 -3.47,2.71 -3.80,2.29 -4.02,1.80 -4.24,1.32 -4.33,0.79 -4.43,0.26 -4.40,-0.26 -4.36,-0.80 -4.20,-1.31 -4.04,-1.82 -3.77,-2.28 -3.49,-2.73 -3.11,-3.11 -2.73,-3.49 -2.28,-3.77 -1.82,-4.05 -1.31,-4.20 -0.80,-4.36 -0.26,-4.40 0.26,-4.43 0.79,-4.33 1.32,-4.24 1.80,-4.02 2.29,-3.80 2.71,-3.47 3.14,-3.14 3.14,-3.14 L 3.14,-3.14 Z"></path></g><g transform="translate(938.8458966717124 2803.6362867118896) rotate(0 80.38333129882812 12.5)"><text x="0" y="17.52" font-family="Virgil, Segoe UI Emoji" font-size="20px" fill="#2f9e44" text-anchor="start" style="white-space: pre;" direction="ltr" dominant-baseline="alphabetic">webpack / vitejs</text></g><g stroke-linecap="round" transform="translate(995.2095441326499 2549.0908460380615) rotate(0 44.0909423828125 25.909103393554688)"><path d="M56.25 6.5 C61.79 11.29, 69.51 16.5, 76.93 19.5 M56.25 6.5 C63.16 10.44, 72.01 15.22, 76.93 19.5 M76.93 19.5 C86.4 27.33, 88.6 25.04, 76.93 32.5 M76.93 19.5 C88.71 24.92, 88.2 24.47, 76.93 32.5 M76.93 32.5 C72.49 35.03, 67.36 38.01, 56.25 45.32 M76.93 32.5 C70.23 37.06, 64.08 40.85, 56.25 45.32 M56.25 45.32 C44.19 50.35, 46.58 51.86, 33.75 45.32 M56.25 45.32 C44.32 51.89, 45.34 51.62, 33.75 45.32 M33.75 45.32 C25.54 42.54, 20.18 37.34, 11.25 32.5 M33.75 45.32 C28.39 42.09, 20.92 38.02, 11.25 32.5 M11.25 32.5 C-0.3 27.27, 1.38 24.57, 11.25 19.5 M11.25 32.5 C1.26 23.98, 1.31 26.82, 11.25 19.5 M11.25 19.5 C17.47 16.26, 22.08 12.2, 33.75 6.5 M11.25 19.5 C17.15 17.05, 20.95 13.62, 33.75 6.5 M33.75 6.5 C44.43 -1.59, 44.51 -1.61, 56.25 6.5 M33.75 6.5 C46.65 -0.01, 43.76 -2.22, 56.25 6.5" stroke="#1971c2" stroke-width="2" fill="none"></path></g><g transform="translate(1095.2095441326499 2567.2726697685302) rotate(0 0.00004999999998744897 0.00005000000010113581)" stroke="none"><path fill="#1971c2" d="M 3.14,-3.14 Q 3.14,-3.14 3.55,-2.55 3.97,-1.97 4.18,-1.28 4.40,-0.59 4.38,0.11 4.36,0.83 4.11,1.51 3.86,2.18 3.41,2.74 2.96,3.30 2.36,3.69 1.75,4.07 1.05,4.25 0.36,4.42 -0.35,4.36 -1.07,4.30 -1.73,4.02 -2.39,3.74 -2.92,3.26 -3.46,2.78 -3.81,2.15 -4.16,1.53 -4.30,0.82 -4.43,0.11 -4.34,-0.59 -4.24,-1.30 -3.92,-1.94 -3.60,-2.59 -3.09,-3.09 -2.59,-3.60 -1.94,-3.92 -1.30,-4.24 -0.59,-4.34 0.12,-4.43 0.82,-4.30 1.53,-4.16 2.15,-3.81 2.78,-3.46 3.26,-2.92 3.74,-2.39 4.02,-1.73 4.31,-1.07 4.36,-0.35 4.42,0.36 4.25,1.05 4.07,1.75 3.69,2.36 3.30,2.96 2.74,3.41 2.18,3.86 1.51,4.11 0.83,4.36 0.11,4.38 -0.60,4.40 -1.28,4.18 -1.97,3.97 -2.55,3.55 -3.14,3.13 -3.14,3.14 -3.14,3.14 -3.47,2.71 -3.80,2.29 -4.02,1.80 -4.24,1.32 -4.33,0.79 -4.43,0.26 -4.40,-0.26 -4.36,-0.80 -4.20,-1.31 -4.04,-1.82 -3.77,-2.28 -3.49,-2.73 -3.11,-3.11 -2.73,-3.49 -2.28,-3.77 -1.82,-4.05 -1.31,-4.20 -0.80,-4.36 -0.26,-4.40 0.26,-4.43 0.79,-4.33 1.32,-4.24 1.80,-4.02 2.29,-3.80 2.71,-3.47 3.14,-3.14 3.14,-3.14 L 3.14,-3.14 Z"></path></g><g transform="translate(1097.9368390545249 2564.5454053642334) rotate(0 38.36666488647461 12.5)"><text x="0" y="17.52" font-family="Virgil, Segoe UI Emoji" font-size="20px" fill="#1971c2" text-anchor="start" style="white-space: pre;" direction="ltr" dominant-baseline="alphabetic">tsconfig</text></g></svg>